<svg width="240" height="240" viewBox="0 0 240 240" fill="none" xmlns="http://www.w3.org/2000/svg">
<!-- حرف D -->
<path d="M60 50V190H140C170 190 190 170 190 140V100C190 70 170 50 140 50H60Z" fill="black"/>
<path d="M80 70V170H140C160 170 170 160 170 140V100C170 80 160 70 140 70H80Z" fill="white"/>
<!-- خطان أفقيان متموجان -->
<path d="M50 110C50 110 60 105 70 110C80 115 90 110 100 110C110 110 120 115 130 110C140 105 150 110 160 110C170 110 180 105 190 110" stroke="black" stroke-width="6" stroke-linecap="round" fill="none"/>
<path d="M50 130C50 130 60 125 70 130C80 135 90 130 100 130C110 130 120 135 130 130C140 125 150 130 160 130C170 130 180 125 190 130" stroke="black" stroke-width="6" stroke-linecap="round" fill="none"/>
</svg>
