<svg width="222" height="108" viewBox="0 0 222 108" fill="none" xmlns="http://www.w3.org/2000/svg">
<path d="M216.272 90.8964H4.75071C4.57311 90.8964 4.39551 90.7632 4.39551 90.5412C4.39551 90.3192 4.52871 90.186 4.75071 90.186H216.272C216.45 90.186 216.628 90.3192 216.628 90.5412C216.628 90.7632 216.45 90.8964 216.272 90.8964Z" fill="#D1D3D4"/>
<path d="M27.0774 23.9932L13.4644 24.6899L16.9209 92.2232L30.534 91.5265L27.0774 23.9932Z" fill="white"/>
<path d="M16.961 92.5836C16.8722 92.5836 16.7834 92.5392 16.739 92.4948C16.6502 92.4504 16.6502 92.3616 16.6502 92.2728L13.187 24.7404C13.187 24.5628 13.3202 24.3852 13.4978 24.3852L27.1286 23.6748C27.3062 23.6748 27.4394 23.808 27.4838 23.9856L30.947 91.518C30.947 91.6956 30.8138 91.8732 30.6362 91.8732L16.961 92.5836ZM13.853 25.0068L17.2718 91.8732L30.2366 91.2072L26.8178 24.3408L13.853 25.0068Z" fill="#D1D3D4"/>
<path d="M13.4987 24.6936L11.6807 24.7866L15.1372 92.3199L16.9552 92.2269L13.4987 24.6936Z" fill="white"/>
<path d="M15.1402 92.6725C14.9626 92.6725 14.8294 92.5393 14.785 92.3616L11.3218 24.8293C11.3218 24.6517 11.455 24.4741 11.6326 24.4741L13.453 24.3853C13.5418 24.3853 13.6306 24.4297 13.675 24.4741C13.7194 24.5185 13.7638 24.6073 13.7638 24.6961L17.227 92.2285C17.227 92.3173 17.1826 92.4061 17.1382 92.4505C17.0938 92.4949 17.005 92.5392 16.9162 92.5392L15.1402 92.6725ZM11.9878 25.1401L15.4066 92.0065L16.561 91.9621L13.1422 25.0513L11.9878 25.1401Z" fill="#D1D3D4"/>
<path d="M14.0749 28.6476C13.8973 28.6476 13.7197 28.5144 13.7197 28.2924C13.7197 28.0704 13.8529 27.9372 14.0749 27.9372L16.6501 27.804C16.8277 27.804 17.0053 27.9372 17.0053 28.1148C17.0053 28.2924 16.8721 28.47 16.6945 28.47L14.0749 28.6476Z" fill="#D1D3D4"/>
<path d="M14.2971 33.1764C14.1195 33.1764 13.9863 33.0432 13.9419 32.8656C13.9419 32.688 14.0751 32.5104 14.2527 32.5104L16.9167 32.3772C17.0943 32.3772 17.2275 32.5104 17.2719 32.688C17.2719 32.8656 17.1387 33.0432 16.9611 33.0432L14.2971 33.1764Z" fill="#D1D3D4"/>
<path d="M14.5188 37.7496C14.3412 37.7496 14.208 37.6164 14.1636 37.4388C14.1636 37.2612 14.2968 37.0836 14.4744 37.0836L18.9588 36.8616C19.1364 36.8616 19.2696 36.9948 19.314 37.1724C19.314 37.35 19.1808 37.5276 19.0032 37.5276L14.5188 37.7496Z" fill="#D1D3D4"/>
<path d="M14.7409 42.2784C14.5633 42.2784 14.4301 42.1452 14.3857 41.9676C14.3857 41.79 14.5189 41.6124 14.6965 41.6124L17.2717 41.4792C17.4493 41.4792 17.6269 41.6124 17.6269 41.79C17.6269 41.9676 17.4937 42.1452 17.3161 42.1452L14.7409 42.2784Z" fill="#D1D3D4"/>
<path d="M15.0071 46.8072C14.8295 46.8072 14.6519 46.674 14.6519 46.452C14.6519 46.23 14.7851 46.0968 15.0071 46.0968L17.7155 45.9636C17.8931 45.9636 18.0707 46.0968 18.0707 46.2744C18.0707 46.452 17.9375 46.6296 17.7599 46.6296L15.0071 46.8072Z" fill="#D1D3D4"/>
<path d="M15.2292 51.336C15.0516 51.336 14.874 51.2028 14.874 50.9808C14.874 50.7588 15.0072 50.6256 15.2292 50.6256L19.6692 50.4036C19.8468 50.4036 20.0244 50.5368 20.0244 50.7144C20.0244 50.892 19.8912 51.0696 19.7136 51.0696L15.2292 51.336Z" fill="#D1D3D4"/>
<path d="M39.3288 41.3404L34.4858 96.8064L40.1474 97.3007L44.9904 41.8347L39.3288 41.3404Z" fill="white"/>
<path d="M40.1376 97.6451L34.4544 97.1567C34.2768 97.1567 34.1436 96.9791 34.1436 96.8015L38.9832 41.3015C38.9832 41.1239 39.1608 40.9907 39.3384 40.9907L45.0216 41.4791C45.1104 41.4791 45.1992 41.5235 45.2436 41.6123C45.288 41.7011 45.3324 41.7455 45.3324 41.8343L40.4928 97.3343C40.4484 97.5119 40.3152 97.6451 40.1376 97.6451ZM34.8096 96.5351L39.8268 96.9791L44.622 42.1451L39.6048 41.7011L34.8096 96.5351Z" fill="#D1D3D4"/>
<path d="M44.9771 41.8343C44.9771 41.8343 44.0447 42.5891 42.0911 42.5891C41.0255 42.6335 39.9599 42.1895 39.2939 41.3015L41.4251 35.8847L42.9791 31.9331L43.8227 36.1067L44.9771 41.8343Z" fill="white"/>
<path d="M42.0912 42.9445C40.8924 42.9889 39.738 42.4561 39.0276 41.5237C38.9832 41.4349 38.9388 41.3017 38.9832 41.2129L42.6684 31.8445C42.7572 31.6669 42.9348 31.5781 43.1124 31.6669C43.2012 31.7113 43.29 31.8001 43.29 31.8889L45.288 41.7457C45.3324 41.8789 45.288 41.9677 45.1992 42.0565C45.1548 42.1009 44.178 42.9445 42.0912 42.9445ZM39.6936 41.2573C40.3152 41.9233 41.2032 42.2785 42.0912 42.2341C42.9792 42.2785 43.8228 42.0565 44.622 41.6569L42.8904 33.1321L39.6936 41.2573Z" fill="#D1D3D4"/>
<path d="M43.8229 36.1067L41.4253 35.8847L42.9793 31.9331L43.8229 36.1067Z" fill="#FFC700"/>
<path d="M43.8227 36.3288L41.4251 36.1068C41.3363 36.1068 41.2919 36.0624 41.2475 36.018C41.2031 35.9736 41.2031 35.8848 41.2031 35.8404L42.7571 31.8888C42.8015 31.8 42.8903 31.7556 42.9791 31.7556C43.0679 31.7556 43.1567 31.8444 43.1567 31.9332L44.0003 36.1068C44.0003 36.1956 44.0003 36.24 43.9559 36.2844C43.9559 36.3288 43.9115 36.3288 43.8227 36.3288ZM41.7803 35.7072L43.5563 35.8848L42.9347 32.7768L41.7803 35.7072Z" fill="#FFC700"/>
<path d="M33.0579 40.0473L29.2461 83.7036L33.7134 84.0937L37.5252 40.4374L33.0579 40.0473Z" fill="white"/>
<path d="M33.6551 84.4583L29.1707 84.0587C29.0819 84.0587 28.9931 84.0143 28.9487 83.9255C28.9043 83.8367 28.8599 83.7479 28.8599 83.7035L32.6783 40.0139C32.6783 39.8363 32.8559 39.7031 33.0335 39.7031L37.4735 40.1027C37.5623 40.1027 37.6511 40.1471 37.6955 40.2359C37.7399 40.3247 37.7843 40.4135 37.7843 40.5023L33.9659 84.1475C34.0103 84.3251 33.8327 84.4583 33.6551 84.4583ZM29.5703 83.3927L33.3443 83.7035L37.1183 40.6799L33.3443 40.3247L29.5703 83.3927Z" fill="#D1D3D4"/>
<path d="M37.4737 40.4136C36.9409 41.0352 36.1417 41.346 35.2981 41.3016C34.4101 41.2128 33.5665 40.7244 32.9893 40.014L34.6765 35.7516L35.8753 32.6436L36.5413 35.9292L37.4737 40.4136Z" fill="white"/>
<path d="M35.4758 41.6568H35.2982C34.277 41.568 33.389 41.0352 32.7674 40.236C32.723 40.1472 32.6786 40.014 32.723 39.9252L35.609 32.5548C35.6534 32.4216 35.7866 32.3328 35.9642 32.3328C36.0974 32.3328 36.2306 32.466 36.275 32.5992L37.829 40.3692C37.829 40.458 37.829 40.5468 37.7846 40.6356C37.2074 41.3016 36.3638 41.7012 35.4758 41.6568ZM33.4334 39.9696C33.9218 40.5468 34.5878 40.902 35.3426 40.9908C36.0086 41.0352 36.6302 40.7688 37.1186 40.3248L35.7866 33.8424L33.4334 39.9696Z" fill="#D1D3D4"/>
<path d="M36.5855 35.9292L34.7207 35.796L35.9195 32.688L36.5855 35.9292Z" fill="white"/>
<path d="M36.5857 36.2843L34.6765 36.1067C34.5877 36.1067 34.4989 36.0179 34.4101 35.9291C34.3657 35.8403 34.3657 35.7515 34.3657 35.6183L35.5645 32.5103C35.6089 32.3771 35.7421 32.2883 35.9197 32.2883C36.0529 32.2883 36.1861 32.4215 36.2305 32.5547L36.8965 35.8403C36.8965 35.9291 36.8965 36.0623 36.8077 36.1067C36.7633 36.2399 36.6745 36.2843 36.5857 36.2843ZM35.1649 35.4851L36.1417 35.5739L35.7865 33.8423L35.1649 35.4851Z" fill="#D1D3D4"/>
<path d="M31.4797 84.2807C31.2577 84.2807 31.1245 84.1031 31.1245 83.9255L34.9873 41.3015C34.9873 41.1239 35.1649 40.9907 35.3425 40.9907C35.5201 40.9907 35.6533 41.1683 35.6533 41.3459V41.3903L31.7905 84.0143C31.7905 84.1919 31.6573 84.2807 31.4797 84.2807Z" fill="#D1D3D4"/>
<path d="M24.9633 51.9864L24.3125 68.623L29.0151 68.807L29.6659 52.1703L24.9633 51.9864Z" fill="white"/>
<path d="M29.0377 69.1403L24.3313 68.9627C24.1537 68.9627 24.0205 68.7851 24.0205 68.6075L24.6865 51.9575C24.6865 51.8687 24.7309 51.7799 24.7753 51.7355C24.8197 51.6911 24.9085 51.6467 24.9973 51.6467L29.7037 51.8243C29.8813 51.8243 30.0145 52.0019 30.0145 52.1795L29.3485 68.8295C29.3485 68.9183 29.3041 69.0071 29.2597 69.0515C29.2153 69.0959 29.1265 69.1403 29.0377 69.1403ZM24.6421 68.2967L28.6825 68.4743L29.3041 52.4903L25.2193 52.3127L24.6421 68.2967Z" fill="#D1D3D4"/>
<path d="M24.6471 35.2235L23.9946 51.9045L30.6049 52.1631L31.2574 35.4821L24.6471 35.2235Z" fill="white"/>
<path d="M30.6358 52.4904L23.9758 52.224C23.7982 52.224 23.665 52.0464 23.665 51.8688L24.331 35.2188C24.331 35.0412 24.5086 34.908 24.6862 34.908L31.3018 35.1744C31.3906 35.1744 31.4794 35.2188 31.5238 35.2632C31.5682 35.3076 31.6126 35.3964 31.6126 35.4852L30.9466 52.1352C30.9466 52.3572 30.8134 52.4904 30.6358 52.4904ZM24.331 51.6024L30.2806 51.8244L30.9022 35.8404L24.9526 35.6184L24.331 51.6024Z" fill="#D1D3D4"/>
<path d="M21.845 50.5368C21.6674 50.5368 21.5342 50.3592 21.5342 50.1816L21.9782 38.5932C21.9782 37.9716 22.289 37.3944 22.733 36.9504C23.177 36.5064 23.7986 36.2844 24.4202 36.3288H24.731C24.9086 36.3288 25.0418 36.5064 25.0418 36.684C25.0418 36.8616 24.8642 36.9948 24.6866 36.9948H24.3758C23.9318 36.9948 23.4878 37.128 23.1326 37.4388C22.8218 37.7496 22.5998 38.1936 22.5998 38.6376L22.1558 50.226C22.2002 50.4036 22.067 50.5812 21.845 50.5368Z" fill="#D1D3D4"/>
<path d="M9.90137 53.6003H47.2418L45.0662 98.0447C45.0662 100.487 43.0682 102.485 40.6262 102.485H16.517C14.075 102.485 12.1214 100.487 12.077 98.0447L9.90137 53.6003Z" fill="white"/>
<path d="M40.6259 102.84H16.5167C13.8971 102.84 11.7659 100.709 11.7659 98.0891L9.59033 53.6448C9.59033 53.556 9.63473 53.4672 9.67913 53.3784C9.72353 53.334 9.81233 53.2896 9.90113 53.2896H47.2415C47.4191 53.2896 47.5523 53.4228 47.5967 53.6004C47.5967 53.6004 47.5967 53.6004 47.5967 53.6448L45.4211 98.0891C45.3767 100.709 43.2455 102.84 40.6259 102.84ZM10.2563 53.9556L12.4319 98.0448C12.4319 100.309 14.2523 102.13 16.5167 102.13H40.6259C42.8903 102.13 44.7107 100.309 44.7107 98.0448L46.8863 53.9112L10.2563 53.9556Z" fill="#D1D3D4"/>
<path d="M46.5312 62.0808H10.7004C10.5228 62.0808 10.3452 61.9476 10.3452 61.7256C10.3452 61.5036 10.4784 61.3704 10.7004 61.3704H46.5312C46.7088 61.3704 46.8864 61.5036 46.8864 61.7256C46.8864 61.9476 46.7088 62.0808 46.5312 62.0808Z" fill="#D1D3D4"/>
<path d="M217.249 32.3328H192.03V57.33H217.249V32.3328Z" fill="white"/>
<path d="M217.249 57.6851H192.03C191.852 57.6851 191.719 57.5519 191.675 57.3299V32.3327C191.675 32.1551 191.808 32.0219 192.03 31.9775H217.249C217.427 31.9775 217.604 32.1107 217.604 32.3327V57.3299C217.604 57.5519 217.427 57.6851 217.249 57.6851ZM192.341 57.0191H216.894V32.6879H192.341V57.0191Z" fill="#D1D3D4"/>
<path d="M207.17 28.248H202.597V35.352H207.17V28.248Z" fill="#D1D3D4"/>
<path d="M213.164 38.4599H199.667C199.489 38.4599 199.312 38.3267 199.312 38.1047C199.312 37.8827 199.445 37.7495 199.667 37.7495H213.164C213.342 37.7495 213.52 37.8827 213.52 38.1047C213.52 38.3267 213.386 38.4599 213.164 38.4599Z" fill="#D1D3D4"/>
<path d="M213.164 43.2109H195.848C195.671 43.2109 195.493 43.0777 195.493 42.8557C195.493 42.6337 195.626 42.5005 195.848 42.5005H213.164C213.342 42.5005 213.52 42.6337 213.52 42.8557C213.52 43.0777 213.386 43.2109 213.164 43.2109Z" fill="#D1D3D4"/>
<path d="M213.298 47.9172H195.848C195.671 47.9172 195.493 47.784 195.493 47.562C195.493 47.34 195.626 47.2068 195.848 47.2068H213.298C213.475 47.2068 213.653 47.34 213.653 47.562C213.653 47.784 213.475 47.9172 213.298 47.9172Z" fill="#D1D3D4"/>
<path d="M206.549 52.6679H195.848C195.671 52.6679 195.493 52.5347 195.493 52.3127C195.493 52.0907 195.626 51.9575 195.848 51.9575H206.549C206.726 51.9575 206.904 52.0907 206.904 52.3127C206.904 52.5347 206.726 52.6679 206.549 52.6679Z" fill="#D1D3D4"/>
<path d="M176.845 17.2811H75.4355C73.3043 17.2367 71.4839 18.9239 71.4395 21.0551C71.4395 21.3215 71.4395 21.5435 71.4839 21.8099L81.2075 95.7359C81.6071 98.3111 83.7383 100.22 86.3579 100.265H187.767C189.943 100.309 191.719 98.6219 191.763 96.4463C191.763 96.1799 191.763 95.9579 191.719 95.6915L181.995 21.7655C181.596 19.2347 179.42 17.3255 176.845 17.2811Z" fill="#231F20"/>
<path d="M187.723 100.62H86.3134C83.5606 100.531 81.2518 98.489 80.8522 95.7806L71.1286 21.8546C70.951 20.6114 71.3062 19.3238 72.1498 18.347C72.9934 17.4146 74.1922 16.8818 75.4354 16.9262H176.845C179.598 17.015 181.907 19.0574 182.306 21.7658L191.985 95.7362C192.163 96.9794 191.808 98.267 190.964 99.2438C190.165 100.132 188.966 100.665 187.723 100.62ZM75.4354 17.5922C74.3698 17.5478 73.3486 17.9918 72.6826 18.791C71.9722 19.5902 71.6614 20.7002 71.839 21.7658L81.5182 95.7362C81.8734 98.1338 83.9158 99.9098 86.3134 99.9986H187.723C188.789 99.9986 189.81 99.599 190.476 98.7998C191.186 98.0006 191.497 96.8906 191.319 95.825L181.64 21.8546C181.285 19.457 179.243 17.6366 176.845 17.5922H75.4354Z" fill="#231F20"/>
<path d="M66.5112 29.0471H178.31L167.166 95.7359C166.678 98.3111 164.458 100.176 161.838 100.265H59.1408C56.61 100.265 54.9228 98.2223 55.3668 95.7359L66.5112 29.0471Z" fill="white"/>
<path d="M161.838 100.62H59.1409C57.8977 100.664 56.6989 100.132 55.8997 99.1991C55.1005 98.2223 54.7897 96.9347 55.0117 95.6915L66.1561 29.0027C66.2005 28.8251 66.3337 28.7363 66.4669 28.7363H178.266C178.444 28.7363 178.577 28.8695 178.577 29.0915V29.1359L167.432 95.8247C166.988 98.5331 164.635 100.531 161.838 100.62ZM66.8221 29.4023L55.7221 95.8247C55.5001 96.8903 55.7665 97.9559 56.4769 98.7995C57.1429 99.5987 58.1641 100.043 59.1853 99.9983H161.882C164.324 99.9095 166.411 98.1335 166.855 95.7359L177.955 29.4023H66.8221Z" fill="#231F20"/>
<path d="M73.038 17.2812H175.735C178.222 17.2812 179.953 19.3236 179.509 21.81L178.31 29.0472H66.5112L67.71 21.81C68.1984 19.2348 70.4184 17.3701 73.038 17.2812Z" fill="#FFC700"/>
<path d="M178.31 29.3581H66.511C66.4222 29.3581 66.3334 29.3137 66.2446 29.2249C66.2002 29.1361 66.1558 29.0473 66.1558 28.9585L67.3546 21.7213C67.8874 19.0129 70.1962 17.0149 72.9934 16.8817H175.691C176.934 16.8373 178.088 17.3701 178.932 18.3025C179.731 19.2793 180.042 20.5669 179.82 21.8101L178.621 29.0473C178.621 29.2693 178.488 29.3581 178.31 29.3581ZM66.9106 28.6921H178.044L179.198 21.7657C179.42 20.7001 179.154 19.6345 178.443 18.7909C177.777 17.9917 176.756 17.5921 175.735 17.5921H73.0378C70.5958 17.6809 68.509 19.4569 68.065 21.8545L66.9106 28.6921Z" fill="#231F20"/>
<path d="M169.297 49.2492H71.6618C71.4842 49.2492 71.3066 49.116 71.3066 48.894C71.3066 48.672 71.4398 48.5388 71.6618 48.5388H169.297C169.475 48.5388 169.653 48.672 169.653 48.894C169.653 49.116 169.475 49.2492 169.297 49.2492Z" fill="#D1D3D4"/>
<path d="M166.899 63.635H69.2639C69.0863 63.635 68.9087 63.5018 68.9087 63.2798C68.9087 63.0578 69.0419 62.9246 69.2639 62.9246H166.899C167.077 62.9246 167.255 63.0578 167.255 63.2798C167.255 63.5018 167.077 63.635 166.899 63.635Z" fill="#D1D3D4"/>
<path d="M164.458 78.0205H66.822C66.6444 78.0205 66.4668 77.8873 66.4668 77.6653C66.4668 77.4433 66.6 77.3101 66.822 77.3101H164.458C164.635 77.3101 164.813 77.4433 164.813 77.6653C164.813 77.8873 164.68 78.0205 164.458 78.0205Z" fill="#D1D3D4"/>
<path d="M153.624 100.087L168.143 88.7209H159.751C157.309 88.8097 155.267 90.5413 154.823 92.9389L153.624 100.087Z" fill="white"/>
<path d="M153.624 100.442C153.58 100.442 153.491 100.442 153.447 100.398C153.313 100.309 153.269 100.176 153.269 100.043L154.468 92.8943C154.956 90.3635 157.132 88.4987 159.707 88.4099H168.099C168.276 88.4099 168.454 88.5431 168.454 88.7207C168.454 88.8095 168.409 88.9427 168.321 88.9871L153.802 100.354C153.757 100.398 153.713 100.442 153.624 100.442ZM159.751 89.0759C157.487 89.1647 155.578 90.8075 155.134 93.0275L154.068 99.2879L167.166 89.0759H159.751Z" fill="#231F20"/>
<path d="M146.431 25.2732C146.209 25.2732 146.032 25.2288 145.854 25.0956C142.346 23.0532 141.148 18.5244 143.19 14.9724C145.232 11.4648 149.761 10.266 153.313 12.3084C154.556 13.0632 155.578 14.1288 156.244 15.4608C156.51 16.0824 156.199 16.7484 155.622 17.0148C155.089 17.2368 154.423 17.0148 154.112 16.482C152.914 13.9956 149.894 12.93 147.364 14.1732C145.632 15.0168 144.522 16.7928 144.522 18.702C144.522 20.478 145.499 22.1652 147.008 23.0532C147.586 23.364 147.808 24.0744 147.497 24.6516C147.319 25.0956 146.875 25.3176 146.431 25.2732Z" fill="#231F20"/>
<path d="M146.431 25.6286C146.165 25.6286 145.899 25.5398 145.677 25.4066C141.991 23.2754 140.748 18.5246 142.879 14.8394C144.256 12.4418 146.831 10.9766 149.584 10.9766C152.559 10.9766 155.223 12.6638 156.51 15.3278C156.865 16.0826 156.555 16.9706 155.8 17.3702C155.045 17.7254 154.157 17.4146 153.757 16.6598C152.647 14.3066 149.806 13.3742 147.497 14.4842C145.899 15.2834 144.833 16.9262 144.833 18.7022C144.833 20.3894 145.721 21.899 147.186 22.7426C147.897 23.1422 148.163 24.0746 147.719 24.8294C147.497 25.3178 146.964 25.6286 146.431 25.6286ZM149.539 11.6426C145.632 11.6426 142.48 14.795 142.48 18.7022C142.48 21.233 143.812 23.5418 145.987 24.8294C146.387 25.0514 146.92 24.9182 147.142 24.5186C147.364 24.119 147.231 23.5862 146.831 23.3642C144.256 21.899 143.412 18.6134 144.877 16.0382C145.854 14.3954 147.586 13.3742 149.495 13.3742C151.537 13.3742 153.402 14.5286 154.335 16.3934C154.557 16.793 155.045 16.9706 155.489 16.793C155.711 16.7042 155.844 16.5266 155.933 16.3046C156.022 16.0826 155.977 15.8606 155.889 15.6386C154.734 13.1966 152.248 11.6426 149.539 11.6426Z" fill="#231F20"/>
<path d="M119.835 25.2732C119.613 25.2732 119.436 25.2288 119.258 25.0956C115.751 23.0532 114.552 18.5244 116.594 14.9724C118.637 11.4648 123.165 10.266 126.717 12.3084C128.005 13.0632 128.982 14.1288 129.648 15.4608C129.914 16.0824 129.603 16.7484 129.026 17.0148C128.493 17.2368 127.827 17.0148 127.517 16.482C126.318 13.9956 123.299 12.93 120.812 14.1732C119.081 15.0168 117.971 16.7928 117.971 18.702C117.971 20.478 118.947 22.1652 120.457 23.0532C121.034 23.364 121.256 24.0744 120.945 24.6516C120.679 25.0956 120.279 25.3176 119.835 25.2732Z" fill="#231F20"/>
<path d="M119.836 25.6286C119.569 25.6286 119.303 25.5398 119.081 25.4066C115.396 23.2754 114.152 18.5246 116.284 14.8394C117.66 12.4418 120.235 10.9766 122.988 10.9766C125.963 10.9766 128.627 12.6638 129.914 15.3278C130.27 16.0826 129.959 16.9706 129.248 17.3258C128.494 17.681 127.606 17.3702 127.206 16.6154C126.096 14.2622 123.254 13.3298 120.946 14.4398C119.347 15.239 118.282 16.8818 118.282 18.6578C118.282 20.345 119.17 21.8546 120.635 22.6982C121.345 23.0978 121.612 24.0302 121.168 24.785C120.857 25.3178 120.368 25.6286 119.836 25.6286ZM122.944 11.6426C119.036 11.6426 115.884 14.795 115.884 18.7022C115.884 21.233 117.216 23.5418 119.392 24.8294C119.791 25.0514 120.324 24.9182 120.546 24.5186C120.768 24.119 120.635 23.5862 120.235 23.3642C117.66 21.8546 116.816 18.6134 118.282 16.0382C119.791 13.463 123.032 12.6194 125.608 14.0846C126.54 14.6174 127.25 15.4166 127.739 16.349C127.828 16.571 128.005 16.7042 128.227 16.793C128.449 16.8818 128.671 16.8374 128.893 16.7486C129.293 16.5266 129.47 16.0382 129.293 15.5942C128.138 13.1966 125.652 11.6426 122.944 11.6426Z" fill="#231F20"/>
<path d="M93.2402 25.2731C93.0182 25.2731 92.8406 25.2287 92.663 25.0955C89.1554 23.0087 87.9566 18.4799 90.0434 14.9723C91.3754 12.7079 93.773 11.3315 96.3926 11.3315C99.2342 11.3315 101.809 12.9299 103.053 15.5051C103.319 16.0823 103.097 16.7927 102.52 17.1035C101.943 17.4143 101.232 17.1479 100.921 16.5707C99.7226 14.0843 96.7034 13.0187 94.1726 14.2619C92.441 15.1055 91.331 16.8815 91.331 18.7907C91.331 20.5667 92.3078 22.2539 93.8174 23.1419C94.3946 23.4527 94.6166 24.1631 94.3058 24.7403C94.0838 25.1399 93.6842 25.3619 93.2402 25.3619V25.2731Z" fill="#231F20"/>
<path d="M93.24 25.6286C92.9736 25.6286 92.7072 25.5398 92.4852 25.4066C88.8 23.2754 87.5568 18.5246 89.688 14.8394C91.0644 12.4418 93.5952 10.9766 96.348 10.9766C99.3228 10.9766 101.987 12.6638 103.274 15.3278C103.63 16.0826 103.319 16.9706 102.564 17.3702C101.809 17.7254 100.921 17.4146 100.522 16.6598C99.4116 14.3066 96.57 13.3742 94.2612 14.4842C92.6628 15.2834 91.5972 16.9262 91.5972 18.7022C91.5972 20.3894 92.4852 21.899 93.9504 22.7426C94.6608 23.1422 94.9272 24.0746 94.4832 24.8294C94.2612 25.3178 93.7728 25.5842 93.24 25.6286ZM96.348 11.6426C92.4408 11.6426 89.2884 14.795 89.2884 18.7022C89.2884 21.233 90.6204 23.5418 92.796 24.8294C93.1956 25.0514 93.7284 24.9182 93.9504 24.5186C94.1724 24.119 94.0392 23.5862 93.6396 23.3642C91.0644 21.899 90.2208 18.6134 91.686 16.0382C92.6628 14.3954 94.3944 13.3742 96.348 13.3742C98.3904 13.3742 100.255 14.5286 101.188 16.3934C101.41 16.793 101.898 16.9706 102.342 16.793C102.564 16.7042 102.697 16.5266 102.786 16.3046C102.875 16.0826 102.83 15.8606 102.742 15.6386C101.498 13.1966 99.0564 11.6426 96.348 11.6426Z" fill="#231F20"/>
<path d="M90.9754 15.15C90.931 15.15 90.8423 15.15 90.7979 15.1056C90.6647 15.0168 90.5759 14.8392 90.6647 14.6616C91.2419 13.7292 92.0855 12.9744 93.0623 12.5304C93.2399 12.4416 93.4175 12.5304 93.5063 12.708C93.5951 12.8856 93.5063 13.0632 93.3731 13.152C92.5295 13.5516 91.7747 14.2176 91.2419 15.0168C91.1975 15.1056 91.0642 15.15 90.9754 15.15Z" fill="white"/>
<path d="M117.616 15.15C117.571 15.15 117.482 15.15 117.438 15.1056C117.305 15.0168 117.216 14.8392 117.305 14.6616C117.882 13.7292 118.726 12.9744 119.747 12.5304C119.924 12.4416 120.102 12.5304 120.191 12.708C120.28 12.8856 120.191 13.0632 120.058 13.152C119.214 13.5516 118.459 14.2176 117.926 15.0168C117.838 15.1056 117.749 15.15 117.616 15.15Z" fill="white"/>
<path d="M144.478 15.15C144.433 15.15 144.345 15.15 144.3 15.1056C144.167 15.0168 144.078 14.8392 144.167 14.6616C144.744 13.7292 145.588 12.9744 146.609 12.5304C146.787 12.4416 146.964 12.5304 147.053 12.708C147.142 12.8856 147.053 13.0632 146.92 13.152C146.076 13.5516 145.321 14.2176 144.789 15.0168C144.7 15.1056 144.611 15.15 144.478 15.15Z" fill="white"/>
<path d="M108.647 60.8377C108.558 60.8377 108.469 60.7933 108.381 60.7045L100.477 51.6025C100.344 51.4693 100.389 51.2473 100.522 51.1141C100.655 50.9809 100.877 51.0253 101.01 51.1585L108.913 60.2605C109.047 60.3937 109.002 60.6157 108.869 60.7489C108.78 60.8377 108.736 60.8377 108.647 60.8377Z" fill="#FFC700"/>
<path d="M99.2785 60.8376C99.1009 60.8376 98.9233 60.7044 98.9233 60.5268C98.9233 60.438 98.9677 60.3492 99.0565 60.2604L109.89 51.2472C110.023 51.114 110.245 51.1584 110.379 51.2916C110.512 51.4248 110.467 51.6468 110.334 51.78L99.4561 60.7488C99.4117 60.7932 99.3229 60.7932 99.2785 60.8376Z" fill="#FFC700"/>
<path d="M151.404 76.0225C151.315 76.0225 151.226 75.9781 151.137 75.8893L143.234 66.7873C143.101 66.6541 143.145 66.4321 143.279 66.2989C143.412 66.1657 143.634 66.2101 143.767 66.3433L151.67 75.4453C151.803 75.5785 151.759 75.8005 151.626 75.8893C151.581 75.9781 151.493 76.0225 151.404 76.0225Z" fill="#FFC700"/>
<path d="M142.036 75.9779C141.947 75.9779 141.858 75.9335 141.769 75.8447C141.636 75.7115 141.681 75.4895 141.814 75.3563L152.647 66.3431C152.781 66.2099 153.003 66.2543 153.091 66.3875C153.225 66.5207 153.18 66.7427 153.047 66.8315L142.213 75.8447C142.213 75.9779 142.125 75.9779 142.036 75.9779Z" fill="#FFC700"/>
<path d="M76.1016 90.7188H76.0572C75.8796 90.6744 75.7464 90.4968 75.7908 90.3192L84.804 36.1512C84.8484 35.9736 85.026 35.8404 85.2036 35.8848C85.3812 35.9292 85.5144 36.1068 85.47 36.2844L76.4568 90.408C76.4124 90.5856 76.2792 90.7188 76.1016 90.7188Z" fill="#D1D3D4"/>
<path d="M91.0645 90.7189H91.0201C90.8425 90.6745 90.7093 90.4968 90.7537 90.3192L99.8113 36.1957C99.8557 36.0181 100.033 35.8849 100.211 35.9293C100.389 35.9737 100.522 36.1513 100.477 36.3289L91.4197 90.4525C91.3753 90.5857 91.2421 90.7189 91.0645 90.7189Z" fill="#D1D3D4"/>
<path d="M106.072 90.7189H106.027C105.85 90.6745 105.717 90.4968 105.761 90.3192L114.819 36.1957C114.863 36.0181 115.041 35.8849 115.218 35.9293C115.396 35.9737 115.529 36.1513 115.485 36.3289L106.427 90.4525C106.338 90.5857 106.205 90.7189 106.072 90.7189Z" fill="#D1D3D4"/>
<path d="M121.034 90.7189H120.99C120.812 90.6745 120.679 90.4968 120.723 90.3192L129.781 36.1957C129.825 36.0181 130.003 35.8849 130.181 35.9293C130.358 35.9737 130.491 36.1513 130.447 36.3289L121.389 90.4525C121.345 90.5857 121.167 90.7189 121.034 90.7189Z" fill="#D1D3D4"/>
<path d="M135.997 90.7189H135.953C135.775 90.6745 135.642 90.4968 135.686 90.3192L144.744 36.1957C144.788 36.0181 144.966 35.8849 145.144 35.9293C145.321 35.9737 145.454 36.1513 145.41 36.3289L136.308 90.4525C136.264 90.5857 136.175 90.7189 135.997 90.7189Z" fill="#D1D3D4"/>
<path d="M150.96 90.7189H150.916C150.738 90.6745 150.605 90.4968 150.649 90.3192L159.707 36.1957C159.751 36.0181 159.884 35.8849 160.062 35.9293C160.24 35.9737 160.373 36.1513 160.328 36.3289L151.315 90.4525C151.271 90.5857 151.138 90.7189 150.96 90.7189Z" fill="#D1D3D4"/>
</svg>
