<svg width="443" height="497" viewBox="0 0 443 497" fill="none" xmlns="http://www.w3.org/2000/svg">
    <circle cx="191.913" cy="292.622" r="191.913" fill="white" />
    <mask id="mask0_1_6618" style="mask-type:alpha" maskUnits="userSpaceOnUse" x="20" y="-28"
        width="437" height="513">
        <path
            d="M456.5 202.383C456.5 207.583 413.5 277.883 392 312.383C392 312.383 324 435.883 298.5 452.383C273 468.883 243.5 484.383 199 484.383C154.5 484.383 117.58 471.383 102 461.883C86.42 452.383 63.5 470.883 63.5 470.883L20 381.883L60 361.883V295.883V228.883L64.5 202.383L108 131.883L112.5 99.3833L125 25.8833L138.5 -27.1167H228.5L250.5 51.3833L274 140.383C297.167 169.217 344.7 229.683 349.5 240.883C354.3 252.083 379.833 178.55 392 140.383L446 122.883C449.5 147.217 456.5 197.183 456.5 202.383Z"
            fill="#D9D9D9" />
    </mask>
    <g mask="url(#mask0_1_6618)">
        <path
            d="M344.327 734.194C344.327 740.095 275.976 744.879 191.663 744.879C107.351 744.879 39 740.1 39 734.194C39 728.289 107.351 723.505 191.663 723.505C275.976 723.505 344.327 728.289 344.327 734.194Z"
            fill="#E8E8E8" />
        <path
            d="M170.21 108.573C174.333 147.278 167.354 155.329 167.354 155.329C224.746 156.628 246.302 148.838 246.302 148.838C242.667 108.843 237.204 99.5952 237.204 99.5952C186.809 107.358 170.21 108.577 170.21 108.577V108.573Z"
            fill="#C22759" />
        <path
            d="M244.959 709.442V730.031C244.959 731.729 246.338 733.112 248.044 733.112H296.33C299.823 733.112 301.153 728.559 298.21 726.684L271.755 709.446C271.755 709.446 260.494 717.201 244.963 709.446L244.959 709.442Z"
            fill="#121212" />
        <path
            d="M138.497 709.442V730.031C138.497 731.729 137.118 733.112 135.411 733.112H87.1257C83.6321 733.112 82.302 728.559 85.2459 726.684L111.701 709.446C111.701 709.446 122.962 717.201 138.492 709.446L138.497 709.442Z"
            fill="#121212" />
        <path
            d="M409.531 175.674C409.531 175.674 404.405 180.219 404.405 182.409C404.405 184.599 400.016 205.184 400.016 214.419C400.016 223.654 426.648 230.84 426.648 230.84L433.458 214.436C433.458 214.436 429.805 183.499 429.335 183.499C428.865 183.499 409.531 175.67 409.531 175.67V175.674Z"
            fill="#ECC5B7" />
        <path
            d="M289.281 348.413C264.169 379.443 220.583 421.885 220.583 421.885L244.981 715.268C244.981 715.268 269.015 719.418 280.533 712.116C280.533 712.116 290.916 435.496 289.276 348.413H289.281Z"
            fill="#333333" />
        <path
            d="M286.377 357.625C286.292 353.227 296.077 366.195 295.891 362.684C292.051 289.651 170.165 350.887 170.165 350.887L140.412 376.446L101.49 714.722C101.49 714.722 121.091 722.92 138.612 717.378L220.583 425.547C220.583 425.547 247.397 416.108 286.377 357.625Z"
            fill="#333333" />
        <path d="M187.54 117.804L187.398 151.472L220.158 146.431L214.691 108.573L187.54 117.804Z"
            fill="#D98D71" />
        <path
            d="M217.209 126.001L214.696 108.573L187.514 120.996L187.5 127.641C194.049 129.242 206.307 130.674 217.214 126.001H217.209Z"
            fill="#BF755C" />
        <path d="M234.527 49.1063L236.508 72.2138L232.851 74.5103L226.094 46.3753L234.527 49.1063Z"
            fill="#2D2D35" />
        <path
            d="M229.61 69.8243C228.604 75.0558 231.188 79.9504 235.382 80.7529C239.576 81.5553 243.788 77.9642 244.795 72.7326C245.801 67.5011 243.216 62.6065 239.022 61.804C234.828 61.0016 230.616 64.5927 229.61 69.8243Z"
            fill="#B36B51" />
        <path
            d="M233.893 98.4114C234.682 96.0838 235.258 93.6675 235.608 91.1847C236.681 84.4946 236.526 77.6537 235.932 71.7793C235.803 70.5201 235.75 69.2522 235.719 67.9842C235.595 62.8679 234.527 57.6319 232.283 52.4758C225.066 35.8856 207.456 25.8171 189.478 28.0427C165.258 31.0442 149.297 53.7969 153.956 77.0551C151.141 76.1551 148.233 76.399 145.954 78.0172C141.578 81.1207 141.179 88.0591 145.067 93.5212C148.951 98.9789 155.646 100.89 160.022 97.7907C160.629 97.3606 161.152 96.8508 161.604 96.2833C167.59 115.671 186.893 127.699 206.307 123.487C215.804 121.426 223.651 115.839 228.896 108.316C229.26 107.868 229.628 107.349 230.009 106.76C231.676 104.17 232.935 101.351 233.888 98.4114H233.893Z"
            fill="#ECC5B7" />
        <path
            d="M191.012 73.2999C191.433 75.2417 190.2 77.157 188.254 77.5782C186.308 77.9994 184.388 76.7669 183.967 74.825C183.546 72.8831 184.778 70.9678 186.725 70.5467C188.671 70.1255 190.591 71.358 191.012 73.2999Z"
            fill="#333333" />
        <path
            d="M221.687 68.7157C222.108 70.6576 220.876 72.5729 218.93 72.9941C216.983 73.4153 215.064 72.1827 214.642 70.2408C214.221 68.299 215.454 66.3837 217.4 65.9581C219.346 65.5369 221.266 66.7694 221.687 68.7113V68.7157Z"
            fill="#333333" />
        <path
            d="M193.747 65.404C191.867 65.0715 190.098 64.8587 188.36 64.8276C186.627 64.7966 184.951 64.9872 183.351 65.4217C181.763 65.8739 180.189 66.468 178.749 67.4168L178.181 67.7404C177.995 67.8513 177.831 67.9976 177.645 68.1173L176.55 68.8843C175.814 69.4119 175.157 70.0414 174.337 70.5779C174.688 69.7001 175.1 68.8267 175.614 68.0109C176.208 67.2661 176.727 66.406 177.498 65.7897C178.895 64.3887 180.753 63.4355 182.686 62.899C184.636 62.3715 186.707 62.3582 188.618 62.8015C190.524 63.267 192.337 64.0872 193.747 65.404Z"
            fill="#2D2D35" />
        <path
            d="M208.072 63.0497C208.985 61.3517 210.439 59.9906 212.093 58.9443C213.764 57.9113 215.729 57.264 217.746 57.1399C219.75 57.0246 221.82 57.3394 223.589 58.2172C224.52 58.5541 225.287 59.2014 226.09 59.7157C226.834 60.3276 227.513 61.0192 228.12 61.7418C227.171 61.4936 226.347 61.1123 225.478 60.8463L224.192 60.4694C223.979 60.4162 223.775 60.3276 223.563 60.2832L222.92 60.1591C221.248 59.7202 219.563 59.6625 217.919 59.7423C216.265 59.8399 214.616 60.199 212.984 60.7842C211.348 61.365 209.739 62.1364 208.067 63.0542L208.072 63.0497Z"
            fill="#2D2D35" />
        <path
            d="M202.459 63.626C202.215 66.2107 202.397 68.8087 202.88 71.3757C203.124 72.6659 203.474 73.9383 203.971 75.2019C204.494 76.4565 205.128 77.7245 206.276 78.8196C207.566 79.826 208.152 80.1098 208.537 81.0541C208.923 81.861 208.75 82.8807 208.338 83.8561C207.416 85.8467 205.301 87.3364 202.982 88.4359C205.531 88.3117 208.347 87.2965 210.014 84.8048C210.83 83.5989 211.273 81.892 210.745 80.2827C210.191 78.5758 209.123 77.9329 207.939 76.9974C207.225 76.3413 206.631 75.3171 206.108 74.2708C205.554 73.2157 205.181 72.0408 204.738 70.8836C203.935 68.5339 203.23 66.0999 202.463 63.6304L202.459 63.626Z"
            fill="#DF9D86" />
        <path
            d="M240.45 138.459H219.009C202.969 154.54 187.403 138.459 187.403 138.459H173.016C173.016 138.459 134.932 338.247 189.855 348.257C244.781 358.268 273.612 340.521 273.612 340.521V246.77L240.45 138.455V138.459Z"
            fill="#F0F3F6" />
        <path
            d="M240.45 138.459C240.45 138.459 256.632 139.368 284.891 173.502C313.15 207.635 330.472 286.822 360.101 258.151C389.73 229.479 399.759 214.915 399.759 214.915C399.759 214.915 416.624 220.377 426.653 230.845C426.653 230.845 374.692 326.413 350.529 331.419C326.371 336.424 273.612 287.274 273.612 287.274L240.45 138.459Z"
            fill="#E3E8ED" />
        <path
            d="M173.012 138.459C173.012 138.459 112.845 148.018 107.374 156.889C101.903 165.765 51.0282 332.133 87.9504 401.078C87.9504 401.078 107.179 407.418 125.05 401.956L83.6233 690.799C83.6233 690.799 143.436 709.442 240.445 700.163C240.445 700.163 206.511 199.894 173.012 138.455V138.459Z"
            fill="#F0F3F6" />
        <path
            d="M240.45 138.459C240.45 138.459 207.58 286.042 198.695 331.778L191.61 702.734C191.61 702.734 288.74 702.854 299.832 698.7C299.832 698.7 296.911 388.008 295.895 362.684C292.96 289.522 290.735 149.104 240.454 138.455L240.45 138.459Z"
            fill="#F0F3F6" />
        <path
            d="M185.802 380.267L184.233 373.941C183.523 371.081 180.624 369.339 177.76 370.048C174.896 370.758 173.149 373.648 173.858 376.508L180.509 403.286C181.218 406.146 184.118 407.888 186.982 407.179C189.846 406.47 191.593 403.579 190.883 400.719L189.314 394.393C190.932 393.994 191.921 392.358 191.517 390.739L189.464 382.466C189.061 380.848 187.425 379.864 185.807 380.267H185.802Z"
            fill="#DAEEF7" />
        <path
            d="M184.016 434.684L71.4799 462.544C66.7848 463.706 62.0321 460.846 60.8661 456.147L43.3449 385.588C42.1789 380.888 45.0429 376.131 49.7469 374.965L162.283 347.105C166.978 345.943 171.73 348.803 172.896 353.502L190.418 424.062C191.584 428.761 188.72 433.518 184.016 434.684Z"
            fill="#55769F" />
        <path
            d="M124.695 402.049L116.582 404.075C116.582 404.075 110.113 404.545 109.878 404.488C109.643 404.43 102.701 404.235 102.701 404.235L91.3553 402.133C93.0223 409.449 99.4686 435.473 100.386 435.451C101.437 435.425 102.523 423.299 103.676 423.711C104.829 424.119 108.681 440.403 109.706 439.326C110.73 438.249 109.005 422.78 109.972 422.842C110.938 422.904 114.427 438.674 116.52 438.094C118.612 437.513 114.21 420.364 116.059 420.581C117.908 420.794 121.973 438.479 123.795 437.641C125.325 436.936 121.264 417.048 119.929 410.739C119.756 409.923 120.568 409.249 121.344 409.555C133.301 414.232 134.502 413.895 134.715 412.468C134.808 411.847 130.157 407.236 124.691 402.058L124.695 402.049Z"
            fill="#D98D71" />
        <path
            d="M76.2858 360.449C76.2858 360.449 81.6016 396.383 87.9503 401.083C87.9503 401.083 107.622 407.409 125.653 402.368V384.617L126.07 346.098H98.5331L76.2858 360.454V360.449Z"
            fill="#F0F3F6" />
        <path
            d="M141.316 241.073L139.911 246.695C139.446 248.57 139.046 250.459 138.612 252.338L137.974 255.163L137.38 257.996C136.989 259.889 136.581 261.777 136.218 263.67C134.75 271.256 133.434 278.868 132.285 286.507C131.155 294.146 130.14 301.807 129.279 309.482C127.559 324.831 126.318 340.233 125.507 355.652C124.726 370.939 124.27 386.239 124.438 401.557C121.982 402.612 119.326 403.237 116.64 403.605C113.815 403.995 110.942 404.102 108.074 404.04C105.206 403.982 102.333 403.738 99.4774 403.388C96.6222 403.025 93.7715 402.581 90.9562 401.956C93.7405 402.701 96.569 403.299 99.4242 403.765C102.275 404.217 105.152 404.563 108.047 404.718C110.938 404.882 113.851 404.873 116.755 404.576C119.654 404.293 122.554 403.659 125.294 402.51L125.648 402.364V401.956C125.883 386.558 126.548 371.148 127.484 355.768C128.406 340.388 129.696 325.03 131.323 309.712C132.179 302.056 133.083 294.408 134.13 286.778C135.216 279.152 136.351 271.535 137.685 263.95C139.029 256.364 140.51 248.805 142.172 241.281C143.857 233.762 145.785 226.3 147.909 218.879C145.4 226.176 143.272 233.602 141.308 241.073H141.316Z"
            fill="#8795A0" />
        <path
            d="M230.222 24.4383C230.222 24.4383 242.378 22.1018 227.406 14.7732C212.435 7.44464 124.642 -15.4456 146.588 77.6315C146.686 77.5872 146.801 77.5118 146.934 77.4099C147.825 76.8911 150.401 75.734 153.965 77.0508C155.845 77.7468 157.432 79.9192 158.643 82.2025C156.368 97.8971 173.526 157.413 212.936 151.467C252.341 145.517 236.513 78.6335 236.513 78.6335C236.513 78.6335 236.77 92.6079 229.486 103.208C228.581 100.633 227.065 97.835 224.525 95.503C220.02 91.3754 213.525 89.7971 205.217 90.8168C197.432 91.77 191.77 94.807 188.387 99.8523C185.909 103.545 185.084 107.695 184.942 111.215C158.705 100.251 171.176 67.6473 168.773 48.8847C168.795 48.8536 168.809 48.8315 168.809 48.8315C168.809 48.8315 207.5 61.5246 200.446 50.9994C200.446 50.9994 245.54 62.3226 234.607 41.9152C234.607 41.9152 251.228 39.4191 230.217 24.4427L230.222 24.4383ZM191.473 101.892C194.231 97.7952 199.005 95.3035 205.66 94.4922C212.825 93.6143 218.322 94.8646 221.989 98.2119C224.777 100.757 226.045 104.113 226.626 106.738C221.882 111.708 214.873 115.232 204.499 114.882C198.216 114.674 192.989 113.849 188.635 112.537C188.613 109.318 189.176 105.306 191.473 101.892Z"
            fill="#2D2D35" />
        <path
            d="M197.542 99.0942C199.294 100.078 201.227 100.814 202.792 101.2C204.614 101.652 206.489 101.865 208.342 101.697C210.195 101.541 212 100.992 213.667 100.145C215.325 99.2715 216.824 98.101 218.198 96.7799C216.748 98.6065 215.489 99.6084 213.915 100.593C213.077 101.08 212.186 101.484 211.26 101.785C210.329 102.073 209.366 102.264 208.395 102.362C206.449 102.517 204.485 102.273 202.645 101.692C200.805 101.111 199.05 100.265 197.533 99.0986L197.542 99.0942Z"
            fill="#B36B51" />
        <path
            d="M427.868 217.438L404.215 212.561C402.668 212.242 401.674 210.73 401.994 209.183L412.204 159.82C412.523 158.277 414.035 157.284 415.578 157.599L439.231 162.475C440.778 162.795 441.771 164.307 441.452 165.854L431.242 215.217C430.922 216.759 429.41 217.753 427.868 217.438Z"
            fill="#333333" />
        <path
            d="M427.26 212.242L406.83 208.03C405.283 207.711 404.29 206.199 404.609 204.651L413.485 161.726C413.804 160.183 415.316 159.19 416.859 159.505L437.289 163.717C438.836 164.036 439.829 165.548 439.51 167.095L430.634 210.02C430.315 211.563 428.803 212.556 427.26 212.242Z"
            fill="#DAEEF7" />
        <path
            d="M440.738 180.551C437.324 178.086 430.084 173.098 428.559 173.945C426.546 175.062 437.218 183.858 436.411 184.413C435.608 184.967 423.625 180.919 423.297 182.426C423.004 183.779 434.332 189.454 434.212 190.269C434.092 191.081 422.707 189.121 422.06 190.469C421.47 191.688 432.9 195.434 432.962 195.971C433.458 200.484 420.871 198.697 420.628 200.192C420.455 201.256 428.807 202.949 433.596 203.827L431.68 213.089L433.458 214.441L442.121 184.023C442.37 182.692 441.833 181.34 440.738 180.551Z"
            fill="#ECC5B7" />
        <path
            d="M143.281 56.6832C149.377 61.2453 155.814 62.4911 161.032 62.4911C164.211 62.4911 166.933 62.03 168.853 61.5689C168.911 60.6468 168.959 59.7379 168.999 58.8379C164.601 60.0837 153.203 62.0522 143.116 53.1497C143.148 54.298 143.201 55.4773 143.281 56.6788V56.6832Z"
            fill="#DAEEF7" />
        <path
            d="M169.075 53.1231C169.053 52.2142 169.004 51.3275 168.933 50.4674C166.118 51.0083 152.001 53.0965 143.547 42.7309C143.409 43.8925 143.298 45.0851 143.219 46.3177C149.31 52.3472 157.273 53.633 162.939 53.633C165.679 53.633 167.878 53.3315 169.075 53.1275V53.1231Z"
            fill="#DAEEF7" />
        <path
            d="M187.062 0.16036C222.157 -1.78595 237.2 14.1836 242.498 37.2422C177.8 51.5181 140.159 46.3753 140.159 46.3753C140.864 22.4254 155.42 1.91603 187.062 0.16036Z"
            fill="#FF5B7E" />
        <path
            d="M140.159 46.3753C136.187 124.325 119.442 150.434 119.442 150.434C141.707 152.669 146.588 184.151 181.058 184.151C175.548 104.924 169.429 64.1713 171.766 59.8886C174.102 55.6058 187.735 58.2792 195.153 54.8831C202.574 51.4871 214.296 57.9422 230.426 51.9703C235.604 91.1847 235.976 185.902 235.976 185.902C252.336 175.971 250.594 156.246 254.677 145.659C245.322 114.62 249.272 58.8422 242.494 37.2422C190.329 39.5077 144.513 41.5604 140.155 46.3752L140.159 46.3753Z"
            fill="#FF5B7E" />
        <path
            d="M140.377 42.7309C177.999 46.7743 232.469 35.9787 241.984 33.8994C246.821 33.3807 246.821 40.7979 243.633 41.5915C214.097 49.8866 167.94 53.7837 140.377 50.1482C135.93 48.0689 137.207 42.7265 140.377 42.7265V42.7309Z"
            fill="#121212" />
    </g>
    <g filter="url(#filter0_d_1_6618)">
        <path
            d="M272 144.48C272 132.552 281.669 122.883 293.597 122.883H376.597C388.524 122.883 398.193 132.552 398.193 144.48V145.082C398.193 157.01 388.524 166.679 376.597 166.679H272V144.48Z"
            fill="#800080" shape-rendering="crispEdges" />
        <path
            d="M302.368 140.983C301.72 140.983 301.396 140.643 301.396 139.963C301.396 139.315 301.72 138.991 302.368 138.991C303.016 138.991 303.34 139.315 303.34 139.963C303.34 140.643 303.016 140.983 302.368 140.983ZM305.162 140.983C304.498 140.983 304.166 140.643 304.166 139.963C304.166 139.315 304.498 138.991 305.162 138.991C305.794 138.991 306.11 139.315 306.11 139.963C306.11 140.643 305.794 140.983 305.162 140.983ZM299.866 152.281C298.667 152.281 297.711 151.908 296.999 151.163C296.286 150.402 295.93 149.382 295.93 148.102V144.919L297.557 144.069V147.908C297.557 149.819 298.448 150.775 300.23 150.775H308.369C310.151 150.775 311.042 149.819 311.042 147.908V142.733L312.67 141.882V148.102C312.67 149.479 312.249 150.548 311.406 151.309C310.677 151.957 309.722 152.281 308.539 152.281H299.866ZM321.152 152.281C319.776 152.281 318.715 151.836 317.97 150.945C317.354 150.183 317.046 149.22 317.046 148.053V137.46L318.674 136.61V148.005C318.674 149.851 319.565 150.775 321.347 150.775H322.197V152.281H321.152ZM329.534 150.775H330.385V152.281H329.34C327.882 152.281 326.789 151.787 326.06 150.799C325.299 151.787 324.197 152.281 322.756 152.281H321.711V150.775H322.561C324.343 150.775 325.234 149.851 325.234 148.005V142.733L326.862 141.882V148.005C326.862 149.851 327.753 150.775 329.534 150.775ZM324.019 154.832C324.667 154.832 324.991 155.164 324.991 155.828C324.991 156.492 324.667 156.824 324.019 156.824C323.371 156.824 323.047 156.492 323.047 155.828C323.047 155.164 323.371 154.832 324.019 154.832ZM326.789 154.832C327.437 154.832 327.761 155.164 327.761 155.828C327.761 156.492 327.437 156.824 326.789 156.824C326.141 156.824 325.817 156.492 325.817 155.828C325.817 155.164 326.141 154.832 326.789 154.832ZM346.2 138.675C345.535 138.675 345.203 138.335 345.203 137.655C345.203 137.007 345.535 136.683 346.2 136.683C346.831 136.683 347.147 137.007 347.147 137.655C347.147 138.335 346.831 138.675 346.2 138.675ZM336.821 150.677C337.42 148.183 338.465 146.094 339.955 144.409C341.624 142.53 343.584 141.591 345.835 141.591C347.649 141.591 349.091 142.214 350.16 143.461C351.067 144.531 351.52 145.851 351.52 147.422V148.102C351.52 149.479 351.099 150.548 350.257 151.309C349.544 151.957 348.597 152.281 347.414 152.281H337.526C336.068 152.281 334.975 151.787 334.246 150.799C333.485 151.787 332.383 152.281 330.942 152.281H329.897V150.775H330.747C332.529 150.775 333.42 149.851 333.42 148.005V144.506L335.048 143.656V148.005C335.048 149.527 335.639 150.418 336.821 150.677ZM349.893 147.908V147.422C349.893 146.061 349.463 144.968 348.605 144.142C347.876 143.429 346.961 143.073 345.859 143.073C343.964 143.073 342.28 143.964 340.806 145.745C339.688 147.106 338.846 148.782 338.279 150.775H347.293C349.026 150.775 349.893 149.819 349.893 147.908ZM359.566 152.281C358.189 152.281 357.128 151.836 356.383 150.945C355.768 150.183 355.46 149.22 355.46 148.053V137.46L357.088 136.61V148.005C357.088 149.851 357.979 150.775 359.76 150.775H360.611V152.281H359.566ZM360.125 152.281V150.775H360.975C362.757 150.775 363.648 149.851 363.648 148.005V142.733L365.275 141.882V148.053C365.275 149.414 364.879 150.475 364.085 151.236C363.356 151.933 362.384 152.281 361.169 152.281H360.125ZM360.926 156.824C360.262 156.824 359.93 156.484 359.93 155.804C359.93 155.156 360.262 154.832 360.926 154.832C361.558 154.832 361.874 155.156 361.874 155.804C361.874 156.484 361.558 156.824 360.926 156.824ZM363.696 156.824C363.032 156.824 362.7 156.484 362.7 155.804C362.7 155.156 363.032 154.832 363.696 154.832C364.328 154.832 364.644 155.156 364.644 155.804C364.644 156.484 364.328 156.824 363.696 156.824ZM374.421 151.115C374.421 154.063 373.336 155.909 371.165 156.654C370.647 156.832 370.096 156.922 369.513 156.922C368.574 156.922 367.667 156.695 366.792 156.241V154.808C367.618 155.261 368.46 155.488 369.319 155.488C369.999 155.488 370.598 155.334 371.117 155.026C372.251 154.346 372.817 153.075 372.817 151.212V142.733L374.421 141.882V151.115Z"
            fill="white" />
    </g>
    <g filter="url(#filter1_d_1_6618)">
        <path
            d="M248.148 285.758C248.148 276.177 255.915 268.41 265.496 268.41H316.496C326.077 268.41 333.844 276.177 333.844 285.758V286.192C333.844 295.773 326.077 303.54 316.496 303.54H248.148V285.758Z"
            fill="#B83838" shape-rendering="crispEdges" />
        <path
            d="M266.596 293.029V291.78C267.078 291.416 267.761 291.162 268.646 291.019C267.982 290.108 267.65 289.106 267.65 288.013C267.65 286.959 267.904 286.088 268.411 285.398C268.932 284.695 269.634 284.266 270.519 284.11C270.714 284.071 270.91 284.051 271.105 284.051C272.237 284.051 273.167 284.513 273.896 285.437V286.745C273.089 285.743 272.178 285.242 271.163 285.242C271.007 285.242 270.857 285.255 270.714 285.281C269.543 285.515 268.958 286.4 268.958 287.935C268.958 289.132 269.368 290.095 270.187 290.824C270.357 290.811 270.591 290.804 270.89 290.804C272.594 290.778 273.948 290.407 274.949 289.692V290.902C273.857 291.617 272.432 291.975 270.675 291.975C268.958 291.975 267.598 292.326 266.596 293.029ZM280.974 291.975C279.868 291.975 279.016 291.617 278.417 290.902C277.923 290.29 277.676 289.516 277.676 288.579V280.07L278.983 279.387V288.54C278.983 290.023 279.699 290.765 281.13 290.765H281.813V291.975H280.974ZM287.707 290.765H288.39V291.975H287.551C286.38 291.975 285.502 291.578 284.916 290.785C284.305 291.578 283.42 291.975 282.262 291.975H281.423V290.765H282.106C283.537 290.765 284.253 290.023 284.253 288.54V284.305L285.56 283.622V288.54C285.56 290.023 286.276 290.765 287.707 290.765ZM283.277 294.024C283.797 294.024 284.058 294.291 284.058 294.825C284.058 295.358 283.797 295.625 283.277 295.625C282.757 295.625 282.496 295.358 282.496 294.825C282.496 294.291 282.757 294.024 283.277 294.024ZM285.502 294.024C286.022 294.024 286.283 294.291 286.283 294.825C286.283 295.358 286.022 295.625 285.502 295.625C284.981 295.625 284.721 295.358 284.721 294.825C284.721 294.291 284.981 294.024 285.502 294.024ZM300.274 290.765H300.938V291.975H300.099C298.915 291.975 298.03 291.565 297.444 290.746C296.794 291.825 295.805 292.365 294.478 292.365C293.138 292.365 292.149 291.832 291.511 290.765C290.913 291.572 290.022 291.975 288.838 291.975H287.998V290.765H288.681C290.113 290.765 290.828 290.023 290.828 288.54V287.877C290.828 286.38 291.193 285.235 291.921 284.442C292.559 283.739 293.411 283.388 294.478 283.388C295.701 283.388 296.631 283.843 297.269 284.754C297.828 285.535 298.108 286.576 298.108 287.877V288.54C298.108 290.023 298.83 290.765 300.274 290.765ZM294.478 291.155C295.193 291.155 295.759 290.863 296.176 290.277C296.592 289.679 296.8 288.872 296.8 287.857C296.8 285.671 296.026 284.578 294.478 284.578C292.916 284.578 292.136 285.671 292.136 287.857C292.136 290.056 292.916 291.155 294.478 291.155ZM306.824 290.765H307.507V291.975H306.667C305.496 291.975 304.618 291.578 304.033 290.785C303.421 291.578 302.536 291.975 301.378 291.975H300.539V290.765H301.222C302.654 290.765 303.369 290.023 303.369 288.54V284.305L304.677 283.622V288.54C304.677 290.023 305.392 290.765 306.824 290.765ZM302.393 294.024C302.914 294.024 303.174 294.291 303.174 294.825C303.174 295.358 302.914 295.625 302.393 295.625C301.873 295.625 301.613 295.358 301.613 294.825C301.613 294.291 301.873 294.024 302.393 294.024ZM304.618 294.024C305.139 294.024 305.399 294.291 305.399 294.825C305.399 295.358 305.139 295.625 304.618 295.625C304.098 295.625 303.838 295.358 303.838 294.825C303.838 294.291 304.098 294.024 304.618 294.024ZM310.198 283.915C310.328 283.902 310.465 283.895 310.608 283.895C311.779 283.895 312.781 284.181 313.614 284.754C314.759 285.574 315.331 286.745 315.331 288.267V288.638C315.331 289.731 314.993 290.583 314.316 291.194C313.731 291.715 312.97 291.975 312.033 291.975H307.115V290.765H311.896C313.314 290.765 314.024 290.004 314.024 288.482V288.286C314.024 287.233 313.646 286.445 312.892 285.925C312.267 285.457 311.473 285.222 310.511 285.222C309.808 285.222 309.112 285.346 308.422 285.593V284.305L312.853 279.387H314.199L310.198 283.915Z"
            fill="white" />
    </g>
    <g filter="url(#filter2_d_1_6618)">
        <path
            d="M43.8779 262.553C43.8779 251.616 52.7447 242.749 63.6824 242.749H117.682C128.62 242.749 137.487 251.616 137.487 262.553V283.155H63.6824C52.7447 283.155 43.8779 274.288 43.8779 263.35V262.553Z"
            fill="#2F80ED" shape-rendering="crispEdges" />
        <path
            d="M65.112 271.155V269.729C65.6616 269.313 66.4414 269.024 67.4514 268.86C66.6939 267.82 66.3151 266.677 66.3151 265.429C66.3151 264.226 66.6048 263.231 67.184 262.444C67.7782 261.641 68.5802 261.151 69.5903 260.973C69.8131 260.928 70.0359 260.906 70.2587 260.906C71.5509 260.906 72.6129 261.434 73.4447 262.488V263.981C72.5238 262.837 71.4841 262.265 70.3255 262.265C70.1473 262.265 69.9765 262.28 69.8131 262.31C68.4763 262.577 67.8079 263.587 67.8079 265.34C67.8079 266.706 68.2758 267.806 69.2115 268.637C69.4046 268.623 69.672 268.615 70.0136 268.615C71.9594 268.585 73.5041 268.162 74.6478 267.345V268.727C73.4002 269.543 71.7737 269.952 69.7685 269.952C67.8079 269.952 66.2557 270.353 65.112 271.155ZM81.5256 269.952C80.263 269.952 79.2901 269.543 78.6069 268.727C78.0425 268.028 77.7602 267.145 77.7602 266.075V256.361L79.253 255.581V266.031C79.253 267.724 80.0699 268.571 81.7038 268.571H82.4836V269.952H81.5256ZM82.0378 269.952V268.571H82.8176C84.4515 268.571 85.2684 267.724 85.2684 266.031V261.196L86.7612 260.416V266.075C86.7612 267.323 86.3973 268.296 85.6695 268.994C85.0011 269.633 84.1099 269.952 82.9959 269.952H82.0378ZM82.7731 274.118C82.1641 274.118 81.8596 273.806 81.8596 273.183C81.8596 272.588 82.1641 272.291 82.7731 272.291C83.3524 272.291 83.642 272.588 83.642 273.183C83.642 273.806 83.3524 274.118 82.7731 274.118ZM85.313 274.118C84.704 274.118 84.3995 273.806 84.3995 273.183C84.3995 272.588 84.704 272.291 85.313 272.291C85.8923 272.291 86.1819 272.588 86.1819 273.183C86.1819 273.806 85.8923 274.118 85.313 274.118ZM94.279 257.475C93.67 257.475 93.3655 257.163 93.3655 256.539C93.3655 255.945 93.67 255.648 94.279 255.648C94.8582 255.648 95.1479 255.945 95.1479 256.539C95.1479 257.163 94.8582 257.475 94.279 257.475ZM97.621 268.571H98.4008V269.952H97.4427C96.5218 269.952 95.7569 269.729 95.1479 269.284C95.0291 271.749 94.0339 273.309 92.1624 273.962C91.6871 274.126 91.182 274.207 90.6473 274.207C89.7858 274.207 88.954 273.999 88.152 273.584V272.269C88.9095 272.685 89.6819 272.893 90.4691 272.893C91.0929 272.893 91.6425 272.752 92.1178 272.47C93.1575 271.846 93.6774 270.68 93.6774 268.972V261.196L95.1479 260.416V260.438L95.1702 260.416V266.031C95.1702 267.724 95.9871 268.571 97.621 268.571ZM105.139 268.571H105.919V269.952H104.96C103.624 269.952 102.621 269.499 101.953 268.593C101.255 269.499 100.245 269.952 98.9226 269.952H97.9646V268.571H98.7444C100.378 268.571 101.195 267.724 101.195 266.031V261.196L102.688 260.416V266.031C102.688 267.724 103.505 268.571 105.139 268.571ZM100.081 272.291C100.675 272.291 100.972 272.596 100.972 273.205C100.972 273.814 100.675 274.118 100.081 274.118C99.487 274.118 99.19 273.814 99.19 273.205C99.19 272.596 99.487 272.291 100.081 272.291ZM102.621 272.291C103.215 272.291 103.512 272.596 103.512 273.205C103.512 273.814 103.215 274.118 102.621 274.118C102.027 274.118 101.73 273.814 101.73 273.205C101.73 272.596 102.027 272.291 102.621 272.291ZM112.244 257.52C111.635 257.52 111.331 257.208 111.331 256.584C111.331 255.99 111.635 255.693 112.244 255.693C112.823 255.693 113.113 255.99 113.113 256.584C113.113 257.208 112.823 257.52 112.244 257.52ZM105.471 269.952V268.571H109.259C108.442 267.754 108.033 266.58 108.033 265.05C108.033 263.446 108.449 262.206 109.281 261.33C110.009 260.542 110.974 260.149 112.177 260.149C113.41 260.149 114.361 260.535 115.029 261.307C115.608 261.976 115.898 262.867 115.898 263.981V266.142C115.883 267.345 115.519 268.288 114.806 268.972C114.153 269.625 113.262 269.952 112.133 269.952H105.471ZM114.428 264.115C114.428 262.377 113.677 261.508 112.177 261.508C111.346 261.508 110.692 261.82 110.217 262.444C109.756 263.053 109.526 263.914 109.526 265.028C109.526 266.112 109.749 266.974 110.194 267.613C110.655 268.251 111.264 268.571 112.021 268.571C113.625 268.571 114.428 267.739 114.428 266.075V264.115Z"
            fill="white" />
    </g>
    <g filter="url(#filter3_d_1_6618)">
        <path
            d="M11.2041 159.955C11.2041 149.591 19.6051 141.19 29.9684 141.19H93.9684C104.332 141.19 112.733 149.591 112.733 159.955V179.209H29.9684C19.6051 179.209 11.2041 170.808 11.2041 160.445V159.955Z"
            fill="#40C97B" shape-rendering="crispEdges" />
        <path
            d="M43.187 160.367C42.3004 159.354 41.3153 158.847 40.2316 158.847C39.6265 158.847 39.148 159.03 38.7962 159.396C38.4443 159.748 38.2684 160.233 38.2684 160.853V160.895C38.2825 161.542 38.4795 162.049 38.8595 162.415C39.2395 162.781 39.9783 163.154 41.076 163.533C42.23 163.942 43.0111 164.35 43.4192 164.758C43.8414 165.166 44.0525 165.743 44.0525 166.489C44.0525 167.741 43.4544 168.769 42.2582 169.571C41.1323 170.331 39.6687 170.711 37.8673 170.711C35.7001 170.711 34.0676 170.078 32.9699 168.811C32.1536 167.868 31.7455 166.707 31.7455 165.328C31.7455 164.118 32.0551 163.076 32.6743 162.204L34.0465 161.929C33.371 162.956 33.0332 164.054 33.0332 165.222C33.0332 166.503 33.4765 167.523 34.3631 168.283C35.2216 169.029 36.3897 169.402 37.8673 169.402C39.4858 169.402 40.7383 169.064 41.6249 168.389C42.3145 167.854 42.6593 167.221 42.6593 166.489C42.6593 166.053 42.5045 165.708 42.1949 165.454C41.8852 165.201 41.2731 164.913 40.3583 164.589C39.1762 164.167 38.3529 163.752 37.8885 163.343C37.227 162.738 36.8963 161.915 36.8963 160.874C36.8963 159.79 37.2833 158.939 38.0573 158.319C38.6625 157.841 39.3521 157.602 40.1261 157.602C41.3645 157.602 42.3848 158.066 43.187 158.995V160.367ZM36.5374 174.194C35.9604 174.194 35.6719 173.905 35.6719 173.328C35.6719 172.751 35.9604 172.463 36.5374 172.463C37.0863 172.463 37.3607 172.751 37.3607 173.328C37.3607 173.905 37.0863 174.194 36.5374 174.194ZM38.9439 174.194C38.381 174.194 38.0996 173.905 38.0996 173.328C38.0996 172.751 38.381 172.463 38.9439 172.463C39.5069 172.463 39.7883 172.751 39.7883 173.328C39.7883 173.905 39.5069 174.194 38.9439 174.194ZM51.0554 154.878C50.4784 154.878 50.1899 154.583 50.1899 153.992C50.1899 153.429 50.4784 153.147 51.0554 153.147C51.6042 153.147 51.8786 153.429 51.8786 153.992C51.8786 154.583 51.6042 154.878 51.0554 154.878ZM54.2218 165.391H54.9607V166.7H54.0529C53.1804 166.7 52.4556 166.489 51.8786 166.067C51.7661 168.403 50.8231 169.88 49.0499 170.5C48.5996 170.655 48.1211 170.732 47.6145 170.732C46.7982 170.732 46.0101 170.535 45.2502 170.141V168.895C45.9679 169.289 46.6997 169.486 47.4456 169.486C48.0367 169.486 48.5574 169.353 49.0077 169.085C49.9928 168.494 50.4854 167.39 50.4854 165.771V158.404L51.8786 157.665V157.686L51.8997 157.665V162.985C51.8997 164.589 52.6738 165.391 54.2218 165.391ZM61.3447 165.391H62.0836V166.7H61.1759C59.9093 166.7 58.9593 166.271 58.326 165.412C57.6646 166.271 56.7076 166.7 55.4551 166.7H54.5474V165.391H55.2862C56.8343 165.391 57.6083 164.589 57.6083 162.985V158.404L59.0227 157.665V162.985C59.0227 164.589 59.7967 165.391 61.3447 165.391ZM56.5528 168.916C57.1157 168.916 57.3972 169.205 57.3972 169.782C57.3972 170.359 57.1157 170.647 56.5528 170.647C55.9899 170.647 55.7084 170.359 55.7084 169.782C55.7084 169.205 55.9899 168.916 56.5528 168.916ZM58.9593 168.916C59.5223 168.916 59.8037 169.205 59.8037 169.782C59.8037 170.359 59.5223 170.647 58.9593 170.647C58.3964 170.647 58.1149 170.359 58.1149 169.782C58.1149 169.205 58.3964 168.916 58.9593 168.916ZM68.3936 165.391H69.1324V166.7H68.2247C66.93 166.7 65.966 166.257 65.3327 165.37C64.6712 166.257 63.6931 166.7 62.3984 166.7H61.6596V165.391H62.2506C63.855 165.391 64.6572 164.561 64.6572 162.9V153.823L66.0715 153.084V162.985C66.0715 164.589 66.8455 165.391 68.3936 165.391ZM82.0513 165.391H82.7901V166.7H82.0302C80.8621 166.7 79.9262 166.566 79.2226 166.299C78.533 166.031 77.8927 165.56 77.3016 164.885C75.5002 166.095 73.4174 166.7 71.0531 166.7H68.7099V165.391H71.0742C74.1422 165.391 76.5346 164.35 78.2515 162.267C76.999 159.874 75.4861 158.678 73.7129 158.678C72.5026 158.678 71.3205 159.29 70.1665 160.515V159.122C71.3205 157.982 72.5237 157.412 73.7763 157.412H73.8185C76.028 157.412 77.9419 158.903 79.5603 161.887V162.752C79.1241 163.315 78.6597 163.801 78.1671 164.209C78.6174 164.645 79.1241 164.955 79.687 165.138C80.264 165.307 81.0521 165.391 82.0513 165.391ZM74.2829 168.916C74.8317 168.916 75.1062 169.198 75.1062 169.761C75.1062 170.352 74.8317 170.647 74.2829 170.647C73.7059 170.647 73.4174 170.352 73.4174 169.761C73.4174 169.198 73.7059 168.916 74.2829 168.916ZM86.0508 154.878C85.4738 154.878 85.1853 154.583 85.1853 153.992C85.1853 153.429 85.4738 153.147 86.0508 153.147C86.5996 153.147 86.8741 153.429 86.8741 153.992C86.8741 154.583 86.5996 154.878 86.0508 154.878ZM82.3777 166.7V165.391H83.1165C84.6646 165.391 85.4386 164.589 85.4386 162.985V158.404L86.8529 157.665V163.027C86.8529 164.209 86.5081 165.131 85.8186 165.792C85.1853 166.397 84.3409 166.7 83.2854 166.7H82.3777ZM90.6525 166.7V153.823L92.0669 153.084V166.7H90.6525Z"
            fill="white" />
    </g>
    <g filter="url(#filter4_d_1_6618)">
        <path
            d="M67 361.791C67 353.558 73.6743 346.883 81.9075 346.883H151.907C160.141 346.883 166.815 353.558 166.815 361.791V377.76H81.9075C73.6743 377.76 67 371.086 67 362.852V361.791Z"
            fill="#BF722D" shape-rendering="crispEdges" />
        <path
            d="M88.7302 360.023C88.283 360.023 88.0594 359.788 88.0594 359.319C88.0594 358.871 88.283 358.648 88.7302 358.648C89.1775 358.648 89.4011 358.871 89.4011 359.319C89.4011 359.788 89.1775 360.023 88.7302 360.023ZM90.6589 360.023C90.2005 360.023 89.9713 359.788 89.9713 359.319C89.9713 358.871 90.2005 358.648 90.6589 358.648C91.0949 358.648 91.313 358.871 91.313 359.319C91.313 359.788 91.0949 360.023 90.6589 360.023ZM87.0028 367.822C86.1755 367.822 85.5158 367.564 85.0239 367.05C84.5319 366.525 84.2859 365.82 84.2859 364.937V362.74L85.4096 362.153V364.803C85.4096 366.122 86.0245 366.782 87.2544 366.782H92.8727C94.1025 366.782 94.7175 366.122 94.7175 364.803V361.231L95.8411 360.644V364.937C95.8411 365.887 95.5504 366.625 94.969 367.151C94.4659 367.598 93.8062 367.822 92.99 367.822H87.0028ZM101.697 367.822C100.746 367.822 100.014 367.514 99.4995 366.899C99.0747 366.374 98.8622 365.708 98.8622 364.903V357.591L99.9859 357.004V364.87C99.9859 366.144 100.601 366.782 101.831 366.782H102.418V367.822H101.697ZM107.482 366.782H108.069V367.822H107.348C106.342 367.822 105.587 367.481 105.084 366.799C104.559 367.481 103.798 367.822 102.803 367.822H102.082V366.782H102.669C103.899 366.782 104.514 366.144 104.514 364.87V361.231L105.638 360.644V364.87C105.638 366.144 106.252 366.782 107.482 366.782ZM103.675 369.582C104.123 369.582 104.346 369.812 104.346 370.27C104.346 370.728 104.123 370.958 103.675 370.958C103.228 370.958 103.005 370.728 103.005 370.27C103.005 369.812 103.228 369.582 103.675 369.582ZM105.587 369.582C106.034 369.582 106.258 369.812 106.258 370.27C106.258 370.728 106.034 370.958 105.587 370.958C105.14 370.958 104.916 370.728 104.916 370.27C104.916 369.812 105.14 369.582 105.587 369.582ZM116.319 366.782V367.822H107.732V366.782H110.55C109.846 366.066 109.493 365.116 109.493 363.931C109.493 362.801 109.879 361.907 110.651 361.247C111.266 360.722 111.987 360.454 112.814 360.442C113.966 360.442 114.866 360.895 115.514 361.801V362.908C114.843 361.946 113.982 361.465 112.931 361.465H112.881C112.21 361.465 111.662 361.695 111.238 362.153C110.824 362.611 110.617 363.215 110.617 363.964C110.617 364.825 110.874 365.513 111.389 366.027C111.88 366.53 112.54 366.782 113.368 366.782H116.319ZM121.497 367.822C120.547 367.822 119.815 367.514 119.3 366.899C118.875 366.374 118.663 365.708 118.663 364.903V357.591L119.787 357.004V364.87C119.787 366.144 120.402 366.782 121.632 366.782H122.218V367.822H121.497ZM132.432 366.782H133.002V367.822H132.281C131.263 367.822 130.503 367.469 130 366.765C129.441 367.693 128.591 368.157 127.451 368.157C126.299 368.157 125.45 367.699 124.902 366.782C124.387 367.475 123.622 367.822 122.604 367.822H121.883V366.782H122.47C123.7 366.782 124.315 366.144 124.315 364.87V364.3C124.315 363.014 124.628 362.03 125.254 361.348C125.802 360.744 126.534 360.442 127.451 360.442C128.502 360.442 129.301 360.834 129.849 361.616C130.33 362.287 130.57 363.182 130.57 364.3V364.87C130.57 366.144 131.191 366.782 132.432 366.782ZM127.451 367.117C128.066 367.117 128.552 366.866 128.91 366.362C129.268 365.848 129.447 365.155 129.447 364.283C129.447 362.405 128.781 361.465 127.451 361.465C126.109 361.465 125.438 362.405 125.438 364.283C125.438 366.172 126.109 367.117 127.451 367.117ZM134.353 358.48C133.906 358.48 133.683 358.251 133.683 357.793C133.683 357.334 133.906 357.105 134.353 357.105C134.801 357.105 135.024 357.334 135.024 357.793C135.024 358.251 134.801 358.48 134.353 358.48ZM136.265 358.48C135.818 358.48 135.594 358.251 135.594 357.793C135.594 357.334 135.818 357.105 136.265 357.105C136.713 357.105 136.936 357.334 136.936 357.793C136.936 358.251 136.713 358.48 136.265 358.48ZM138.06 366.782H138.647V367.822H137.926C136.919 367.822 136.165 367.481 135.662 366.799C135.136 367.481 134.376 367.822 133.381 367.822H132.66V366.782H133.247C134.476 366.782 135.091 366.144 135.091 364.87V361.231L136.215 360.644V364.87C136.215 366.144 136.83 366.782 138.06 366.782ZM138.31 367.822V366.782H140.188C142.626 366.782 144.526 365.954 145.89 364.3C144.895 362.399 143.693 361.449 142.285 361.449C141.323 361.449 140.384 361.935 139.467 362.908V361.801C140.384 360.895 141.34 360.442 142.335 360.442H142.368C144.124 360.442 145.644 361.627 146.93 363.998V364.685C145.298 366.776 143.045 367.822 140.171 367.822H138.31ZM142.737 370.958C142.279 370.958 142.05 370.723 142.05 370.253C142.05 369.806 142.279 369.582 142.737 369.582C143.173 369.582 143.392 369.806 143.392 370.253C143.392 370.723 143.173 370.958 142.737 370.958ZM149.273 367.822V357.591L150.397 357.004V367.822H149.273Z"
            fill="white" />
    </g>
    <defs>
        <filter id="filter0_d_1_6618" x="261.6" y="112.483" width="154.993" height="72.5954"
            filterUnits="userSpaceOnUse" color-interpolation-filters="sRGB">
            <feFlood flood-opacity="0" result="BackgroundImageFix" />
            <feColorMatrix in="SourceAlpha" type="matrix"
                values="0 0 0 0 0 0 0 0 0 0 0 0 0 0 0 0 0 0 127 0" result="hardAlpha" />
            <feOffset dx="4" dy="4" />
            <feGaussianBlur stdDeviation="7.2" />
            <feComposite in2="hardAlpha" operator="out" />
            <feColorMatrix type="matrix" values="0 0 0 0 0 0 0 0 0 0 0 0 0 0 0 0 0 0 0.3 0" />
            <feBlend mode="normal" in2="BackgroundImageFix" result="effect1_dropShadow_1_6618" />
            <feBlend mode="normal" in="SourceGraphic" in2="effect1_dropShadow_1_6618" result="shape" />
        </filter>
        <filter id="filter1_d_1_6618" x="237.748" y="258.01" width="114.496" height="63.9309"
            filterUnits="userSpaceOnUse" color-interpolation-filters="sRGB">
            <feFlood flood-opacity="0" result="BackgroundImageFix" />
            <feColorMatrix in="SourceAlpha" type="matrix"
                values="0 0 0 0 0 0 0 0 0 0 0 0 0 0 0 0 0 0 127 0" result="hardAlpha" />
            <feOffset dx="4" dy="4" />
            <feGaussianBlur stdDeviation="7.2" />
            <feComposite in2="hardAlpha" operator="out" />
            <feColorMatrix type="matrix" values="0 0 0 0 0 0 0 0 0 0 0 0 0 0 0 0 0 0 0.3 0" />
            <feBlend mode="normal" in2="BackgroundImageFix" result="effect1_dropShadow_1_6618" />
            <feBlend mode="normal" in="SourceGraphic" in2="effect1_dropShadow_1_6618" result="shape" />
        </filter>
        <filter id="filter2_d_1_6618" x="33.4779" y="232.349" width="122.409" height="69.206"
            filterUnits="userSpaceOnUse" color-interpolation-filters="sRGB">
            <feFlood flood-opacity="0" result="BackgroundImageFix" />
            <feColorMatrix in="SourceAlpha" type="matrix"
                values="0 0 0 0 0 0 0 0 0 0 0 0 0 0 0 0 0 0 127 0" result="hardAlpha" />
            <feOffset dx="4" dy="4" />
            <feGaussianBlur stdDeviation="7.2" />
            <feComposite in2="hardAlpha" operator="out" />
            <feColorMatrix type="matrix" values="0 0 0 0 0 0 0 0 0 0 0 0 0 0 0 0 0 0 0.3 0" />
            <feBlend mode="normal" in2="BackgroundImageFix" result="effect1_dropShadow_1_6618" />
            <feBlend mode="normal" in="SourceGraphic" in2="effect1_dropShadow_1_6618" result="shape" />
        </filter>
        <filter id="filter3_d_1_6618" x="0.804102" y="130.79" width="130.329" height="66.819"
            filterUnits="userSpaceOnUse" color-interpolation-filters="sRGB">
            <feFlood flood-opacity="0" result="BackgroundImageFix" />
            <feColorMatrix in="SourceAlpha" type="matrix"
                values="0 0 0 0 0 0 0 0 0 0 0 0 0 0 0 0 0 0 127 0" result="hardAlpha" />
            <feOffset dx="4" dy="4" />
            <feGaussianBlur stdDeviation="7.2" />
            <feComposite in2="hardAlpha" operator="out" />
            <feColorMatrix type="matrix" values="0 0 0 0 0 0 0 0 0 0 0 0 0 0 0 0 0 0 0.3 0" />
            <feBlend mode="normal" in2="BackgroundImageFix" result="effect1_dropShadow_1_6618" />
            <feBlend mode="normal" in="SourceGraphic" in2="effect1_dropShadow_1_6618" result="shape" />
        </filter>
        <filter id="filter4_d_1_6618" x="56.6" y="336.483" width="128.615" height="59.6765"
            filterUnits="userSpaceOnUse" color-interpolation-filters="sRGB">
            <feFlood flood-opacity="0" result="BackgroundImageFix" />
            <feColorMatrix in="SourceAlpha" type="matrix"
                values="0 0 0 0 0 0 0 0 0 0 0 0 0 0 0 0 0 0 127 0" result="hardAlpha" />
            <feOffset dx="4" dy="4" />
            <feGaussianBlur stdDeviation="7.2" />
            <feComposite in2="hardAlpha" operator="out" />
            <feColorMatrix type="matrix" values="0 0 0 0 0 0 0 0 0 0 0 0 0 0 0 0 0 0 0.3 0" />
            <feBlend mode="normal" in2="BackgroundImageFix" result="effect1_dropShadow_1_6618" />
            <feBlend mode="normal" in="SourceGraphic" in2="effect1_dropShadow_1_6618" result="shape" />
        </filter>
    </defs>
</svg>