<svg width="465" height="304" viewBox="0 0 465 304" fill="none" xmlns="http://www.w3.org/2000/svg">
    <g clip-path="url(#clip0_1_6498)">
        <path d="M464.212 0.263672H171.369V237.359H464.212V0.263672Z" fill="white" />
        <path
            d="M464.212 238.184H171.369C170.934 238.184 170.609 237.831 170.609 237.359V0.263776C170.609 -0.207821 170.934 -0.561523 171.369 -0.561523H464.212C464.646 -0.561523 464.972 -0.207821 464.972 0.263776V237.359C464.972 237.831 464.538 238.184 464.212 238.184ZM172.129 236.534H463.452V1.08907H172.129V236.534Z"
            fill="#231F20" />
        <path
            d="M307.312 137.498H213.39C212.955 137.498 212.63 137.145 212.63 136.673C212.63 136.201 212.955 135.848 213.39 135.848H307.312C307.747 135.848 308.072 136.201 308.072 136.673C308.072 137.145 307.747 137.498 307.312 137.498Z"
            fill="#D1D3D4" />
        <path
            d="M307.312 152H213.39C212.955 152 212.63 151.646 212.63 151.175C212.63 150.703 212.955 150.349 213.39 150.349H307.312C307.747 150.349 308.072 150.703 308.072 151.175C308.072 151.646 307.747 152 307.312 152Z"
            fill="#D1D3D4" />
        <path
            d="M307.312 166.384H213.39C212.955 166.384 212.63 166.03 212.63 165.558C212.63 165.087 212.955 164.733 213.39 164.733H307.312C307.747 164.733 308.072 165.087 308.072 165.558C308.072 166.03 307.747 166.384 307.312 166.384Z"
            fill="#D1D3D4" />
        <path
            d="M446.839 224.154H188.633C188.199 224.154 187.873 223.8 187.873 223.329V14.2937C187.873 13.8221 188.199 13.4684 188.633 13.4684H446.839C447.273 13.4684 447.599 13.8221 447.599 14.2937V223.329C447.599 223.8 447.273 224.154 446.839 224.154ZM189.393 222.504H446.079V15.119H189.393V222.504Z"
            fill="#D1D3D4" />
        <path
            d="M430.009 152H334.784C334.349 152 334.023 151.646 334.023 151.175C334.023 150.939 334.132 150.821 334.241 150.703C335.218 146.341 334.675 81.1425 334.132 37.8735C334.132 37.5198 334.349 37.1661 334.566 37.0482C334.892 36.9303 335.218 37.0482 335.435 37.284L430.661 150.703C430.878 150.939 430.878 151.292 430.769 151.646C430.552 151.764 430.226 152 430.009 152ZM335.652 150.349H428.272L335.544 39.9957C336.086 78.9024 336.738 140.21 335.652 150.349Z"
            fill="#D1D3D4" />
        <path
            d="M409.921 159.545C409.487 159.545 409.161 159.192 409.161 158.72C409.161 158.484 408.51 136.437 425.991 132.193C426.426 132.075 426.86 132.429 426.86 132.782C426.969 133.254 426.643 133.725 426.317 133.725C410.03 137.616 410.681 158.366 410.681 158.602C410.681 159.192 410.464 159.545 409.921 159.545Z"
            fill="#D1D3D4" />
        <path
            d="M350.311 152C349.876 152 349.551 151.646 349.551 151.175V138.677H334.784C334.349 138.677 334.023 138.323 334.023 137.852C334.023 137.38 334.349 137.027 334.784 137.027H350.419C350.854 137.027 351.179 137.38 351.179 137.852V151.057C351.071 151.646 350.745 152 350.311 152Z"
            fill="#D1D3D4" />
        <path
            d="M321.754 86.2122V85.1511C321.754 84.6795 321.754 84.3258 321.862 83.8542C321.971 83.1468 322.297 82.4394 322.731 81.8499C322.948 81.4962 323.274 81.1425 323.6 80.9067L324.794 79.6099C325.12 79.2562 325.445 78.9024 325.663 78.5488C326.206 77.4877 326.097 76.0729 325.337 75.1297C324.903 74.5402 324.142 74.3044 323.491 74.4223C323.165 74.4223 322.731 74.5402 322.405 74.6581C322.079 74.776 321.754 75.0118 321.537 75.3655C321.319 75.6013 321.102 75.955 320.994 76.3087C320.885 76.6624 320.776 77.134 320.776 77.4877L317.519 77.134C317.628 76.3087 317.845 75.4834 318.171 74.6581C318.496 73.9507 318.931 73.3612 319.474 72.7717C320.016 72.3001 320.668 71.8285 321.319 71.5927C322.731 71.1211 324.36 71.1211 325.771 71.5927C326.423 71.8285 327.074 72.1822 327.617 72.6538C328.16 73.1254 328.594 73.7149 328.812 74.4223C329.137 75.1297 329.246 75.955 329.246 76.7803C329.246 77.3698 329.137 77.8414 329.029 78.4309C328.92 78.9025 328.703 79.374 328.486 79.7277C328.269 80.0814 327.943 80.553 327.617 80.7888C327.291 81.1425 326.966 81.4962 326.531 81.9678C326.097 82.4394 325.88 82.5573 325.663 82.7931C325.445 83.0289 325.228 83.2647 325.12 83.5005C325.011 83.7363 324.903 83.9721 324.903 84.3258C324.794 84.6795 324.794 85.0332 324.794 85.3869V86.0943L321.754 86.2122ZM321.211 90.2208C321.211 89.6313 321.428 89.0418 321.862 88.5702C322.297 88.0986 322.84 87.8628 323.382 87.8628C323.925 87.8628 324.468 88.0986 324.903 88.4523C325.337 88.806 325.554 89.3955 325.554 89.985C325.554 90.5745 325.337 91.164 324.903 91.6356C324.468 92.1072 323.925 92.3429 323.382 92.3429C323.057 92.3429 322.84 92.343 322.514 92.2251C322.297 92.1072 322.079 91.9892 321.862 91.7534C321.645 91.5177 321.537 91.2819 321.428 91.0461C321.211 90.8103 321.211 90.5745 321.211 90.2208Z"
            fill="#D1D3D4" />
        <path
            d="M407.967 82.2036C407.75 81.8499 407.424 81.4962 406.99 81.3783C406.555 81.1425 406.121 81.0246 405.687 81.0246C405.252 81.0246 404.818 81.1425 404.384 81.3783C404.058 81.6141 403.732 81.8499 403.407 82.3215C403.189 82.6752 402.972 83.0289 402.864 83.5005C402.755 83.9721 402.647 84.4437 402.647 84.9153C402.647 85.3869 402.755 85.8585 402.864 86.3301C402.972 86.8017 403.189 87.1553 403.407 87.509C403.624 87.8627 403.949 88.2164 404.384 88.4522C404.818 88.688 405.252 88.8059 405.687 88.8059C406.121 88.8059 406.555 88.688 406.99 88.5701C407.424 88.4522 407.75 88.0985 407.967 87.7448L409.704 89.6312C409.27 90.2207 408.619 90.5744 407.967 90.8102C407.207 91.1639 406.447 91.2818 405.687 91.2818C404.927 91.2818 404.167 91.1639 403.407 90.8102C402.755 90.5744 402.104 90.1028 401.452 89.5133C400.909 88.9238 400.475 88.2164 400.149 87.509C399.823 86.6838 399.715 85.7406 399.715 84.9153C399.715 83.9721 399.823 83.1468 400.149 82.3215C400.692 80.7888 401.886 79.6098 403.298 79.0203C404.058 78.6666 404.818 78.5487 405.578 78.5487C406.338 78.5487 407.207 78.6666 407.967 79.0203C408.619 79.2561 409.27 79.7277 409.813 80.4351L407.967 82.2036Z"
            fill="#D1D3D4" />
        <path
            d="M252.696 85.5048H247.593V83.7363L252.37 75.955H254.651V83.7363H256.171V85.5048H254.651V87.9807H252.805V85.5048H252.696ZM252.696 78.3129L249.547 83.7363H252.696V78.3129Z"
            fill="#D1D3D4" />
        <path
            d="M264.857 77.7236H260.297L260.188 80.3173C260.405 80.1994 260.622 80.1994 260.84 80.1994H261.491C262.034 80.1994 262.468 80.3173 263.011 80.4352C263.446 80.5531 263.88 80.9068 264.206 81.1426C264.531 81.4963 264.857 81.85 265.074 82.3216C265.291 82.7932 265.4 83.3827 265.4 83.9722C265.4 84.5617 265.291 85.1512 265.074 85.7407C264.857 86.2123 264.531 86.6839 264.206 87.0376C263.88 87.3913 263.337 87.745 262.903 87.8629C262.36 88.0987 261.817 88.0987 261.274 88.0987C260.405 88.0987 259.645 87.8629 258.885 87.3913C258.234 86.9197 257.799 86.2123 257.474 85.5049L259.211 84.7975C259.537 85.7407 260.405 86.4481 261.274 86.4481C261.6 86.4481 261.817 86.4481 262.034 86.3302C262.577 86.0944 262.903 85.7407 263.12 85.1512C263.228 84.7975 263.337 84.5617 263.228 84.208C263.228 83.8543 263.12 83.3827 263.011 83.029C262.903 82.7932 262.686 82.4395 262.468 82.3216C262.251 82.0858 261.925 81.9679 261.708 81.9679C261.383 81.85 261.057 81.85 260.84 81.85C260.622 81.85 260.405 81.85 260.188 81.85C259.971 81.85 259.754 81.9679 259.537 81.9679C259.32 81.9679 259.102 82.0858 258.885 82.2037C258.668 82.3216 258.451 82.3216 258.342 82.4395L258.559 75.8372H264.966L264.857 77.7236Z"
            fill="#D1D3D4" />
        <path
            d="M267.137 78.9025C267.137 78.4309 267.246 78.0772 267.354 77.6056C267.68 76.8982 268.223 76.1908 268.875 75.955C269.635 75.6013 270.395 75.6013 271.155 75.955C271.48 76.0729 271.806 76.3087 272.132 76.6624C272.349 76.8982 272.566 77.2519 272.783 77.7235C273.109 78.5488 273.109 79.3741 272.783 80.1993C272.675 80.553 272.458 80.9067 272.132 81.2604C271.915 81.4962 271.589 81.732 271.155 81.9678C270.395 82.3215 269.635 82.3215 268.875 81.9678C268.223 81.6141 267.572 81.0246 267.354 80.3172C267.137 79.7277 267.137 79.374 267.137 78.9025ZM271.48 78.9025C271.48 78.5488 271.372 78.0772 271.046 77.8414C270.829 77.4877 270.395 77.3698 270.069 77.3698C269.309 77.3698 268.657 78.0772 268.657 78.9025C268.657 79.2561 268.766 79.7277 269.092 79.9635C269.309 80.1993 269.743 80.4351 270.069 80.4351C270.829 80.4351 271.48 79.7277 271.48 78.9025ZM276.367 75.3655L277.67 76.0729L271.155 88.5702L269.852 87.8628L276.367 75.3655ZM274.629 85.0332C274.629 84.6795 274.738 84.2079 274.846 83.8542C275.172 83.1468 275.715 82.4394 276.367 82.2036C277.127 81.8499 277.887 81.8499 278.647 82.2036C278.973 82.3215 279.298 82.5573 279.624 82.911C279.841 83.1468 280.058 83.5005 280.276 83.9721C280.601 84.7974 280.601 85.6227 280.276 86.448C279.95 87.1554 279.407 87.8628 278.755 88.0986C277.995 88.4523 277.235 88.4523 276.475 88.0986C276.149 87.9807 275.824 87.7449 275.498 87.3912C275.281 87.1554 275.064 86.8017 274.846 86.3301C274.738 85.9764 274.629 85.5048 274.629 85.0332ZM278.973 85.0332C278.973 84.2079 278.321 83.6184 277.561 83.6184C276.801 83.6184 276.258 84.3258 276.258 85.1511C276.258 85.9764 276.91 86.5659 277.67 86.5659C277.995 86.5659 278.321 86.448 278.647 86.0943C278.864 85.8585 278.973 85.5048 278.973 85.0332Z"
            fill="#D1D3D4" />
        <path
            d="M376.153 157.659V166.03H376.262C376.37 165.794 376.587 165.558 376.804 165.44C377.022 165.205 377.347 164.969 377.565 164.851C377.89 164.615 378.325 164.497 378.65 164.379C379.085 164.261 379.519 164.143 379.953 164.143C380.713 164.143 381.473 164.261 382.125 164.615C382.776 164.969 383.319 165.44 383.754 165.912C384.188 166.501 384.622 167.209 384.839 167.916C385.057 168.742 385.274 169.567 385.274 170.392C385.274 171.217 385.165 172.043 384.839 172.868C384.622 173.575 384.188 174.283 383.754 174.872C383.319 175.462 382.668 175.933 382.125 176.287C381.365 176.641 380.605 176.759 379.845 176.759C379.085 176.759 378.325 176.523 377.673 176.169C377.022 175.816 376.479 175.226 376.044 174.519V176.287H373.438V157.541H376.153V157.659ZM382.451 170.392C382.451 169.921 382.342 169.449 382.234 168.977C382.125 168.506 381.908 168.152 381.691 167.798C381.473 167.445 381.039 167.091 380.713 166.855C380.279 166.619 379.845 166.501 379.302 166.501C378.868 166.501 378.325 166.619 377.999 166.855C377.565 167.091 377.239 167.445 377.022 167.798C376.696 168.152 376.479 168.624 376.37 168.977C376.262 169.449 376.153 169.921 376.153 170.392C376.153 170.864 376.262 171.335 376.37 171.807C376.479 172.279 376.696 172.632 377.022 172.986C377.347 173.34 377.673 173.693 377.999 173.929C378.433 174.165 378.868 174.283 379.302 174.283C379.736 174.283 380.279 174.165 380.713 173.929C381.148 173.693 381.473 173.458 381.691 172.986C381.908 172.632 382.125 172.161 382.234 171.807C382.451 171.335 382.451 170.864 382.451 170.392Z"
            fill="#D1D3D4" />
        <path
            d="M376.153 157.659V166.03H376.262C376.37 165.794 376.587 165.558 376.804 165.44C377.022 165.205 377.347 164.969 377.565 164.851C377.89 164.615 378.325 164.497 378.65 164.379C379.085 164.261 379.519 164.143 379.953 164.143C380.713 164.143 381.473 164.261 382.125 164.615C382.776 164.969 383.319 165.44 383.754 165.912C384.188 166.501 384.622 167.209 384.839 167.916C385.057 168.742 385.274 169.567 385.274 170.392C385.274 171.217 385.165 172.043 384.839 172.868C384.622 173.575 384.188 174.283 383.754 174.872C383.319 175.462 382.668 175.933 382.125 176.287C381.365 176.641 380.605 176.759 379.845 176.759C379.085 176.759 378.325 176.523 377.673 176.169C377.022 175.816 376.479 175.226 376.044 174.519V176.287H373.438V157.541H376.153V157.659ZM382.451 170.392C382.451 169.921 382.342 169.449 382.234 168.977C382.125 168.506 381.908 168.152 381.691 167.798C381.473 167.445 381.039 167.091 380.713 166.855C380.279 166.619 379.845 166.501 379.302 166.501C378.868 166.501 378.325 166.619 377.999 166.855C377.565 167.091 377.239 167.445 377.022 167.798C376.696 168.152 376.479 168.624 376.37 168.977C376.262 169.449 376.153 169.921 376.153 170.392C376.153 170.864 376.262 171.335 376.37 171.807C376.479 172.279 376.696 172.632 377.022 172.986C377.347 173.34 377.673 173.693 377.999 173.929C378.433 174.165 378.868 174.283 379.302 174.283C379.736 174.283 380.279 174.165 380.713 173.929C381.148 173.693 381.473 173.458 381.691 172.986C381.908 172.632 382.125 172.161 382.234 171.807C382.451 171.335 382.451 170.864 382.451 170.392Z"
            fill="#D1D3D4" />
        <path
            d="M286.899 103.308H207.635C207.201 103.308 206.875 102.954 206.875 102.482C206.875 102.246 206.983 102.011 207.201 101.893L286.465 34.4545C286.791 34.2187 287.333 34.2187 287.551 34.5724C287.768 34.9261 287.768 35.3977 287.442 35.7514L209.915 101.657H287.008C287.442 101.657 287.768 102.011 287.768 102.482C287.659 102.954 287.333 103.308 286.899 103.308Z"
            fill="#D1D3D4" />
        <path
            d="M236.952 109.91C236.843 109.91 236.626 109.91 236.517 109.792C236.192 109.556 236.083 108.967 236.3 108.613C236.409 108.495 246.072 90.928 225.876 67.4661C225.551 67.1124 225.551 66.6408 225.876 66.2871C226.202 65.9334 226.636 65.9334 226.962 66.2871C237.929 79.0202 240.209 90.1027 240.209 97.0588C240.318 101.421 239.449 105.783 237.495 109.556C237.386 109.792 237.169 109.91 236.952 109.91Z"
            fill="#D1D3D4" />
        <path
            d="M435.764 224.154H392.44C392.005 224.154 391.68 223.801 391.68 223.329V203.758C391.68 203.286 392.005 202.932 392.44 202.932H435.764C436.198 202.932 436.524 203.286 436.524 203.758V223.329C436.524 223.801 436.198 224.154 435.764 224.154ZM393.091 222.504H434.895V204.583H393.091V222.504Z"
            fill="#D1D3D4" />
        <path d="M435.655 213.543H392.332V223.329H435.655V213.543Z" fill="#D1D3D4" />
        <path
            d="M435.764 224.154H392.44C392.005 224.154 391.68 223.801 391.68 223.329V213.543C391.68 213.072 392.005 212.718 392.44 212.718H435.764C436.198 212.718 436.524 213.072 436.524 213.543V223.329C436.524 223.801 436.198 224.154 435.764 224.154ZM393.091 222.504H434.895V214.369H393.091V222.504Z"
            fill="#D1D3D4" />
        <path
            d="M271.806 139.621C267.789 140.21 252.479 152.354 248.461 153.179C248.461 153.179 241.621 160.607 233.477 168.388C237.82 176.523 241.403 185.13 244.227 194.09C251.284 185.601 257.582 177.112 259.428 174.637C260.948 172.279 262.685 170.156 264.423 168.034C267.246 165.205 270.938 163.2 273.978 160.842C277.344 158.249 280.493 155.183 282.447 151.293C283.316 149.76 283.642 147.991 283.533 146.223C282.99 141.861 275.389 139.149 271.806 139.621Z"
            fill="white" />
        <path
            d="M244.335 194.915H244.227C244.01 194.915 243.684 194.679 243.684 194.326C240.861 185.483 237.278 176.877 232.934 168.742C232.717 168.388 232.826 167.916 233.043 167.68C241.078 159.899 247.918 152.471 248.027 152.471C248.136 152.354 248.244 152.236 248.461 152.236C250.307 151.882 254.976 148.817 259.428 145.751C264.64 142.214 269.635 138.913 271.806 138.677C275.607 138.206 283.642 140.917 284.402 145.987C284.619 147.991 284.185 149.878 283.316 151.528C281.144 156.008 277.344 159.31 274.629 161.432C273.544 162.257 272.349 163.082 271.155 163.908C268.983 165.322 267.029 166.855 265.183 168.624C263.989 169.921 262.794 171.453 261.817 172.986C261.274 173.693 260.731 174.519 260.188 175.226L258.994 176.877C256.388 180.296 250.959 187.605 245.095 194.679C244.661 194.915 244.552 194.915 244.335 194.915ZM234.563 168.624C238.581 176.287 241.947 184.304 244.661 192.557C250.199 185.837 255.193 179.117 257.691 175.815L258.885 174.165C259.428 173.457 259.971 172.75 260.405 172.043C261.491 170.392 262.686 168.977 263.989 167.563C265.943 165.676 268.006 164.026 270.286 162.729C271.372 161.903 272.566 161.196 273.652 160.371C276.258 158.366 279.841 155.301 281.904 151.057C282.664 149.642 282.99 148.109 282.882 146.459C282.339 142.568 275.172 140.092 272.024 140.446C270.178 140.682 264.857 144.219 260.188 147.402C255.519 150.585 251.067 153.415 248.896 154.004C247.81 155.065 241.729 161.668 234.563 168.624Z"
            fill="#231F20" />
        <path d="M255.411 167.091L312.307 85.1511L313.502 85.8585L258.559 168.859L255.411 167.091Z"
            fill="#231F20" />
        <path
            d="M258.559 169.685C258.451 169.685 258.342 169.685 258.234 169.567L255.085 167.68C254.868 167.563 254.759 167.327 254.65 167.091C254.65 166.855 254.65 166.619 254.759 166.384L311.655 84.4437C311.873 84.09 312.307 83.9721 312.633 84.2079L313.827 84.9153C314.153 85.1511 314.37 85.6227 314.153 86.0943L259.211 169.213C258.994 169.567 258.776 169.685 258.559 169.685ZM256.496 166.737L258.234 167.798L307.964 92.5787L256.496 166.737Z"
            fill="#231F20" />
        <path
            d="M247.267 154.476C251.502 149.524 255.845 141.978 258.017 139.031C258.451 138.441 258.885 137.852 259.537 137.38C260.297 137.027 261.057 136.791 261.926 136.791C267.029 136.437 272.024 136.909 277.018 138.206C278.538 138.441 280.059 139.267 281.144 140.446C281.47 140.799 281.687 141.271 281.687 141.743C281.687 142.686 280.927 143.275 280.167 143.747C277.778 144.926 275.172 145.633 272.566 145.751C268.875 146.223 267.572 145.28 263.771 145.28C264.206 145.28 265.183 149.524 264.314 152.236C263.446 154.947 261.6 156.952 259.754 159.074"
            fill="white" />
        <path
            d="M259.645 159.899C259.428 159.899 259.32 159.781 259.103 159.663C258.777 159.31 258.777 158.838 259.103 158.484L259.211 158.366C261.057 156.598 262.469 154.358 263.446 152C263.989 149.996 263.88 147.873 263.229 145.987C263.011 145.869 262.903 145.515 262.903 145.28C262.903 144.808 263.229 144.454 263.663 144.454C264.966 144.454 266.269 144.572 267.572 144.808C269.201 145.044 270.829 145.162 272.458 144.926C274.955 144.808 277.453 144.101 279.733 143.039C280.059 142.804 280.819 142.332 280.819 141.86C280.819 141.507 280.602 141.271 280.493 141.035C279.407 139.974 278.104 139.267 276.693 139.149C271.807 137.852 266.812 137.38 261.817 137.734C261.057 137.734 260.405 137.852 259.754 138.206C259.211 138.559 258.885 139.031 258.451 139.62C257.8 140.564 256.931 141.86 255.954 143.511C253.456 147.638 250.742 151.528 247.701 155.183C247.484 155.537 247.05 155.655 246.616 155.419C246.181 155.183 246.181 154.711 246.398 154.24C246.398 154.122 246.507 154.122 246.616 154.004C249.547 150.349 252.262 146.576 254.651 142.45C255.628 140.799 256.605 139.502 257.257 138.559C257.691 137.852 258.234 137.262 258.885 136.791C259.754 136.319 260.623 136.083 261.6 136.083C266.703 135.73 271.915 136.201 276.91 137.498C278.647 137.734 280.276 138.677 281.47 139.974C281.905 140.446 282.23 141.153 282.23 141.86C282.23 142.568 281.905 143.629 280.276 144.572C277.778 145.869 275.173 146.576 272.349 146.694C270.612 146.93 268.875 146.812 267.138 146.576C266.377 146.459 265.617 146.341 264.64 146.341C265.183 148.463 265.183 150.703 264.64 152.707C263.554 155.301 262.034 157.777 260.08 159.663L259.971 159.781C260.08 159.781 259.863 159.899 259.645 159.899Z"
            fill="#231F20" />
        <path
            d="M167.351 122.289C167.351 122.289 188.959 201.753 195.582 197.981C202.206 194.208 241.404 156.952 241.404 156.952L258.559 181.71C258.559 181.71 206.223 272.139 189.502 262.471C172.78 252.804 155.407 201.753 155.407 201.753L167.351 122.289Z"
            fill="#FFC700" />
        <path
            d="M59.4216 190.435L34.3394 183.479C35.3166 181.475 50.5179 131.839 64.5249 122.172C76.4688 111.325 100.682 110.264 127.936 109.085C136.623 108.495 145.418 109.438 153.887 111.796C185.701 121.346 171.912 191.85 171.912 191.85C171.912 191.85 175.386 225.569 180.815 292.3C180.815 292.3 136.08 301.732 57.9015 296.898C58.01 297.134 60.1817 199.278 59.4216 190.435Z"
            fill="#FFC700" />
        <path
            d="M131.085 103.779L135.211 125.944C135.211 125.944 128.805 140.682 115.124 138.206C101.443 135.73 98.8366 124.647 98.8366 124.647L93.1904 82.2037C93.1904 82.2037 81.5722 66.2874 87.4356 49.0741C93.299 31.8608 130.217 31.1534 133.474 54.969C133.474 54.969 141.292 79.9637 140.423 91.3999C139.555 102.836 131.085 103.779 131.085 103.779Z"
            fill="white" />
        <path
            d="M118.055 139.267C116.97 139.267 115.992 139.149 114.907 139.031C100.9 136.555 98.0765 125.355 97.9679 124.883L92.4303 82.5573C91.1273 80.6709 81.0293 65.2261 86.6755 48.8381C89.2815 41.2926 99.1623 34.4545 113.061 35.9871C122.182 37.0482 132.605 42.4716 134.234 54.851C134.56 55.7942 142.052 79.9635 141.183 91.3997C140.423 101.185 134.234 103.779 131.954 104.369L135.863 125.826C135.863 125.944 135.863 126.18 135.754 126.298C135.754 126.416 129.999 139.267 118.055 139.267ZM109.478 37.4019C100.574 37.4019 90.8016 41.2926 87.9785 49.3097C82.3323 65.8156 93.5161 81.4962 93.6247 81.6141C93.7333 81.732 93.7333 81.8499 93.7333 81.9678L99.3795 124.411C99.4881 124.765 102.094 134.905 115.015 137.262C127.176 139.503 133.257 127.595 134.125 125.708L130.108 103.779C130.108 103.543 130.108 103.308 130.217 103.072C130.325 102.836 130.542 102.718 130.759 102.718C131.085 102.718 138.577 101.657 139.446 91.046C140.315 79.9635 132.605 55.2047 132.497 54.9689C131.085 45.0654 123.702 38.5809 112.626 37.4019C111.758 37.4019 110.563 37.4019 109.478 37.4019Z"
            fill="#231F20" />
        <path
            d="M140.64 87.8627C140.64 87.8627 139.229 83.3826 124.027 86.2121C108.826 89.0417 109.369 107.198 100.357 99.181C91.3445 91.1639 96.1221 76.8981 95.2535 63.6934C94.0591 46.7159 90.6931 47.3054 87.327 49.0739C75.6003 55.3226 79.292 81.9678 95.362 105.783C101.008 114.154 136.406 129.835 141.075 106.962C143.681 94.2293 140.64 87.8627 140.64 87.8627Z"
            fill="#D1D3D4" />
        <path
            d="M125.439 119.695C113.169 119.695 98.4021 111.56 94.8189 106.255C83.5265 89.3954 77.6631 70.0599 80.4862 58.0342C81.5721 53.4362 83.8523 50.135 87.1097 48.3665C88.5212 47.6591 90.15 46.9517 91.6701 47.8949C94.0589 49.3097 95.3619 54.2615 96.0133 63.6934C96.2305 67.702 96.1219 71.7105 95.7962 75.6012C95.2533 84.5615 94.819 93.1682 100.899 98.4736C102.42 99.8884 103.723 100.478 104.808 100.36C106.437 100.124 107.957 98.2378 109.695 95.8798C112.518 92.1071 116.427 86.9195 124.027 85.3868C138.903 82.5573 141.183 86.6837 141.4 87.509C141.617 88.3343 144.441 94.7009 141.835 107.08C140.749 113.329 136.188 118.045 130.542 119.106C128.805 119.46 127.068 119.695 125.439 119.695ZM89.9328 49.0739C89.1727 49.1918 88.4127 49.4276 87.6526 49.7813C84.7209 51.314 82.7664 54.2615 81.7892 58.3879C79.1833 69.9421 84.8295 88.8059 95.9048 105.312C99.8137 111.089 118.055 120.285 130.108 117.573C135.645 116.276 139.011 112.739 140.314 106.844C142.812 94.583 139.989 88.3343 139.88 88.3343V88.2164C139.772 88.0985 137.926 84.5615 124.136 87.1553C117.078 88.4522 113.603 93.1682 110.78 97.0588C108.826 99.6526 107.197 101.893 104.917 102.129C103.397 102.246 101.768 101.657 99.9223 99.8884C93.2988 93.9935 93.7331 85.0331 94.276 75.6012C94.6018 71.7105 94.7104 67.702 94.4932 63.8113C93.8417 55.3226 92.6473 50.4887 90.91 49.3097C90.5843 49.0739 90.2585 49.0739 89.9328 49.0739Z"
            fill="#231F20" />
        <path
            d="M97.4249 80.553C96.4477 77.7235 94.3847 75.4834 91.7787 74.1865C89.7157 73.1254 87.4355 72.8896 85.2639 73.7149C81.7893 75.1297 80.9206 78.6667 81.5721 82.2036C81.7893 83.7363 82.3322 85.1511 82.8751 86.5659C85.5896 92.2251 91.9959 94.4651 97.2078 91.5177C97.2078 91.5177 97.3164 91.5177 97.3164 91.3998"
            fill="white" />
        <path
            d="M92.4303 93.6397C88.1956 93.6397 84.2867 91.0459 82.3323 86.9195C81.6808 85.5047 81.2465 83.972 80.9207 82.3214C80.0521 77.8412 81.6808 74.3043 85.0468 72.8895C87.327 72.0642 89.9329 72.3 92.1046 73.479C94.9277 74.7759 97.0993 77.2517 98.1851 80.3171C98.2937 80.7887 98.0765 81.2603 97.7508 81.3782C97.3165 81.4961 96.8821 81.2603 96.7736 80.9066C95.7963 78.3128 93.9504 76.1907 91.5617 75.1296C89.7158 74.0685 87.6527 73.9506 85.6983 74.658C82.9838 75.719 81.7894 78.5486 82.4408 82.2035C82.658 83.6183 83.0923 85.0331 83.7438 86.33C86.2412 91.6354 92.2132 93.6397 97.0993 90.928C97.0993 90.928 97.2079 90.9281 97.2079 90.8102C97.5336 90.5744 98.0765 90.6923 98.2937 91.0459C98.5109 91.3996 98.4023 91.9891 98.0765 92.2249C98.0765 92.2249 97.9679 92.2249 97.9679 92.3428C96.1221 93.0502 94.2762 93.6397 92.4303 93.6397Z"
            fill="#231F20" />
        <path
            d="M133.04 81.3784C132.605 81.3784 132.28 81.3784 131.845 81.2605C124.787 80.5531 119.576 73.8329 120.118 66.1694C120.77 58.506 126.959 52.8468 134.017 53.4363C141.075 54.1437 146.286 60.864 145.744 68.5274C145.201 75.8372 139.663 81.2605 133.04 81.3784ZM121.747 66.2873C121.204 73.0076 125.765 79.0205 132.062 79.61C138.36 80.1994 143.789 75.2477 144.332 68.4095C144.875 61.6893 140.315 55.6764 134.017 55.0869C127.828 54.4974 122.29 59.4492 121.747 66.2873Z"
            fill="#231F20" />
        <path
            d="M107.632 82.5574C107.197 82.5574 106.872 82.5574 106.437 82.4395C99.3794 81.7321 94.1676 75.0118 94.7105 67.3484C95.362 59.685 101.551 54.0258 108.609 54.6153C115.667 55.3227 120.879 62.0429 120.336 69.7064C119.793 77.0161 114.255 82.5574 107.632 82.5574ZM107.632 56.2659C101.442 56.6196 96.5563 62.2787 96.8821 69.1169C97.2078 75.955 102.42 81.1426 108.717 80.7889C114.907 80.4352 119.793 74.776 119.467 67.9379C119.25 61.5713 114.581 56.5017 108.717 56.2659C108.283 56.3838 107.957 56.2659 107.632 56.2659Z"
            fill="#231F20" />
        <path
            d="M175.712 238.184C175.278 238.184 174.952 237.831 174.952 237.477L166.591 136.791C166.591 136.319 166.808 135.966 167.243 135.848C167.677 135.73 168.003 136.084 168.111 136.555L176.472 237.241C176.472 237.713 176.255 238.184 175.712 238.184C175.821 238.184 175.821 238.184 175.712 238.184Z"
            fill="#231F20" />
        <path
            d="M121.313 85.5047C120.661 85.5047 120.01 85.5047 119.358 85.3868C118.924 85.3868 118.598 84.9152 118.598 84.5615C118.598 84.0899 119.033 83.7362 119.358 83.7362H119.467C120.553 83.8541 124.027 84.0899 125.005 82.6751C125.656 81.7319 123.159 76.898 119.793 72.0642C119.576 71.7105 119.576 71.2389 119.901 70.8852C120.227 70.5315 120.661 70.6494 120.987 71.0031C123.159 73.9506 127.828 81.1424 126.199 83.5004C125.33 85.151 123.05 85.5047 121.313 85.5047Z"
            fill="#231F20" />
        <path
            d="M110.617 73.3529C111.576 73.3288 112.328 72.0954 112.296 70.5983C112.264 69.1011 111.46 67.907 110.501 67.9312C109.542 67.9554 108.79 69.1887 108.822 70.6858C108.854 72.183 109.658 73.3771 110.617 73.3529Z"
            fill="#231F20" />
        <path
            d="M127.749 71.3395C128.66 71.0095 129.043 69.5904 128.606 68.1699C128.169 66.7494 127.077 65.8654 126.167 66.1955C125.257 66.5255 124.873 67.9446 125.31 69.3651C125.747 70.7856 126.839 71.6696 127.749 71.3395Z"
            fill="#231F20" />
        <path
            d="M125.982 102.954C122.507 102.836 119.141 101.539 116.318 99.0631C115.992 98.7094 115.992 98.2378 116.318 97.8841C116.644 97.5304 117.078 97.5304 117.404 97.7662C117.73 98.1199 126.307 106.255 135.754 96.3515C136.08 95.9978 136.514 95.9978 136.84 96.3515C137.166 96.7052 137.166 97.1767 136.84 97.5304C132.931 101.657 129.239 102.954 125.982 102.954Z"
            fill="#231F20" />
        <path
            d="M135.32 241.839C135.32 241.839 157.796 238.774 163.768 240.306C172.563 242.429 181.901 249.385 187.113 257.166C188.307 258.699 189.067 260.467 189.502 262.471C189.827 264.476 188.959 266.48 187.439 267.541C185.376 268.602 183.095 267.305 181.032 266.598C176.255 264.829 171.043 265.89 165.94 266.598C163.985 266.952 162.031 267.069 159.968 266.834C155.516 266.244 151.498 263.297 147.372 261.41C139.772 257.873 130.976 258.227 123.05 259.642"
            fill="white" />
        <path
            d="M185.702 268.72C184.29 268.602 182.987 268.248 181.793 267.659C181.467 267.541 181.141 267.423 180.707 267.305C176.581 265.772 171.912 266.48 167.46 267.069L165.94 267.305C163.877 267.659 161.814 267.777 159.859 267.541C156.71 266.951 153.561 265.772 150.738 264.004C149.544 263.297 148.241 262.707 147.047 262.118C140.749 259.288 132.931 258.699 123.159 260.349C122.724 260.467 122.29 260.231 122.29 259.76C122.182 259.288 122.399 258.816 122.833 258.816H122.942C133.04 257.048 141.183 257.637 147.698 260.703C149.001 261.292 150.304 262 151.498 262.707C154.322 264.24 157.036 265.772 160.076 266.126C162.031 266.244 163.877 266.244 165.831 265.89L167.351 265.655C172.02 264.947 176.798 264.24 181.25 265.89L182.335 266.362C184.073 267.069 185.702 267.659 187.113 266.951C188.416 266.008 189.068 264.358 188.85 262.707C188.525 260.939 187.765 259.17 186.679 257.755C181.25 249.856 172.02 243.254 163.768 241.249C158.013 239.835 135.754 242.782 135.537 242.9C135.103 242.9 134.777 242.664 134.668 242.193C134.56 241.721 134.886 241.367 135.32 241.249C136.297 241.132 158.013 238.184 164.094 239.717C172.78 241.839 182.335 248.677 187.873 256.93C189.176 258.581 190.045 260.467 190.37 262.589C190.805 264.947 189.719 267.305 187.873 268.484C187.113 268.602 186.462 268.72 185.702 268.72Z"
            fill="#231F20" />
        <path
            d="M34.3394 183.597C34.3394 183.597 9.69146 263.297 21.744 272.257C33.7965 281.217 130.434 276.973 130.434 276.973L136.514 239.363C136.514 239.363 70.0626 248.677 71.6913 243.254C73.32 237.831 81.4636 177.23 81.4636 177.23L34.3394 183.597Z"
            fill="#FFC700" />
        <path
            d="M136.514 240.189L65.5021 234.529C65.0678 234.529 64.7421 234.058 64.8506 233.704V233.586L80.7035 164.733C80.8121 164.261 81.2464 164.026 81.5721 164.144C82.0065 164.261 82.2236 164.733 82.115 165.205L66.4794 232.997L136.514 238.538C136.949 238.538 137.274 239.01 137.166 239.481C137.166 239.835 136.949 240.071 136.514 240.189Z"
            fill="#231F20" />
        <path
            d="M103.397 277.798C102.963 277.798 102.637 277.445 102.637 276.973C102.637 276.619 102.854 276.266 103.18 276.266C103.397 276.266 123.267 270.135 131.845 265.655C132.171 265.419 132.714 265.655 132.823 266.008C133.04 266.362 132.823 266.952 132.497 267.07C123.81 271.668 104.374 277.445 103.614 277.68C103.506 277.68 103.397 277.68 103.397 277.798Z"
            fill="#231F20" />
        <path
            d="M6.10808 276.973H399.498C402.429 276.973 404.818 279.567 404.818 282.75V298.077C404.818 301.26 402.429 303.854 399.498 303.854H6.10808C3.17638 303.854 0.787598 301.26 0.787598 298.077V282.75C0.896179 279.449 3.17638 276.973 6.10808 276.973Z"
            fill="white" />
        <path
            d="M397.435 304.562H8.27982C3.82799 304.562 0.13623 300.553 0.13623 295.719V284.99C0.13623 280.156 3.82799 276.148 8.27982 276.148H397.435C401.886 276.148 405.578 280.156 405.578 284.99V295.719C405.578 300.553 401.886 304.562 397.435 304.562ZM8.27982 277.798C4.58806 277.798 1.65637 280.982 1.65637 284.99V295.719C1.65637 299.728 4.58806 302.911 8.27982 302.911H397.435C401.126 302.911 404.058 299.728 404.058 295.719V284.99C404.058 280.982 401.126 277.798 397.435 277.798H8.27982Z"
            fill="#231F20" />
        <path
            d="M158.23 270.371H315.673C316.868 270.371 317.845 271.432 317.845 272.729V274.733C317.845 276.03 316.868 277.091 315.673 277.091H158.23C157.036 277.091 156.167 276.03 156.167 274.733V272.729C156.059 271.432 157.036 270.371 158.23 270.371Z"
            fill="#231F20" />
        <path
            d="M314.804 277.798H158.991C156.927 277.798 155.19 275.912 155.19 273.672C155.19 271.432 156.927 269.545 158.991 269.545H314.696C316.759 269.545 318.496 271.432 318.496 273.672C318.496 275.912 316.868 277.798 314.804 277.798ZM158.991 271.196C157.688 271.196 156.71 272.257 156.71 273.672C156.71 275.087 157.688 276.148 158.991 276.148H314.696C315.89 276.148 316.868 275.087 316.868 273.79C316.868 272.493 315.999 271.314 314.696 271.314L158.991 271.196Z"
            fill="#231F20" />
        <path d="M257.799 188.431H353.025L314.913 273.672H219.579L257.799 188.431Z" fill="#231F20" />
        <path
            d="M314.913 274.497H219.688C219.47 274.497 219.145 274.379 219.036 274.143C218.927 273.908 218.927 273.554 219.036 273.318L257.148 188.077C257.257 187.841 257.582 187.605 257.799 187.605H353.025C353.242 187.605 353.568 187.723 353.677 187.959C353.785 188.195 353.785 188.549 353.677 188.784L315.565 274.026C315.456 274.261 315.13 274.497 314.913 274.497ZM220.882 272.847H314.479L351.831 189.256H258.234L220.882 272.847Z"
            fill="#231F20" />
    </g>
    <defs>
        <clipPath id="clip0_1_6498">
            <rect width="465" height="304" fill="white" />
        </clipPath>
    </defs>
</svg>