<svg width="500" height="314" viewBox="0 0 500 314" fill="none" xmlns="http://www.w3.org/2000/svg">
    <g clip-path="url(#clip0_1_8169)">
        <path
            d="M458 270.6H37.9998C37.5998 270.6 37.2998 270.3 37.2998 269.9C37.2998 269.5 37.5998 269.2 37.9998 269.2H458C458.4 269.2 458.7 269.5 458.7 269.9C458.7 270.3 458.4 270.6 458 270.6Z"
            fill="#D1D3D4" />
        <path d="M423.9 297.6H169.2L207.3 0.600037H462L423.9 297.6Z" fill="white" />
        <path
            d="M423.9 298.3H169.2C168.8 298.3 168.5 298 168.5 297.6C168.5 297.6 168.5 297.6 168.5 297.5L206.6 0.500023C206.6 0.100023 206.9 -0.0999756 207.3 -0.0999756H462C462.2 -0.0999756 462.4 2.13608e-05 462.5 0.100021C462.6 0.300021 462.7 0.50002 462.7 0.70002L424.6 297.7C424.6 298.1 424.3 298.4 423.9 298.3ZM170 296.9H423.3L461.2 1.30003H207.9L170 296.9Z"
            fill="#231F20" />
        <path
            d="M425 36.8001H263.6C260.6 36.9001 258.1 34.5 258 31.5C258 31.2 258 30.8 258.1 30.5L258.5 27.2C259 23.6 262 21 265.6 20.9H427C430 20.8 432.5 23.2 432.6 26.2C432.6 26.5 432.6 26.9 432.5 27.2L432.1 30.5C431.6 34 428.6 36.7001 425 36.8001Z"
            fill="#D1D3D4" />
        <path
            d="M240.9 23.5H226.5C226.1 23.5 225.8 23.2 225.8 22.8C225.8 22.4 226.1 22.1 226.5 22.1H240.9C241.3 22.1 241.6 22.4 241.6 22.8C241.6 23.2 241.3 23.5 240.9 23.5Z"
            fill="#231F20" />
        <path
            d="M240.1 29.8H225.7C225.3 29.8 225 29.5 225 29.1C225 28.7 225.3 28.4 225.7 28.4H240.1C240.5 28.4 240.8 28.7 240.8 29.1C240.8 29.5 240.5 29.8 240.1 29.8Z"
            fill="#231F20" />
        <path
            d="M239.3 36.1H224.9C224.5 36.1 224.2 35.8 224.2 35.4C224.2 35 224.5 34.7 224.9 34.7H239.3C239.7 34.7 240 35 240 35.4C240 35.8 239.7 36.1 239.3 36.1Z"
            fill="#231F20" />
        <path
            d="M414.7 114.6H228.3C219.2 114.6 212.8 107.2 214 98.2L217.1 74.3C218.3 65.2 226.5 57.9 235.6 57.9H422C431.1 57.9 437.5 65.3 436.3 74.3L433.2 98.2C431.9 107.4 424 114.3 414.7 114.6Z"
            fill="white" />
        <path
            d="M414.7 115.2H228.3C223.9 115.3 219.7 113.5 216.8 110.2C213.9 106.8 212.6 102.4 213.3 98L216.4 74C217.6 64.6 226.2 57 235.6 57H422C426.4 56.9 430.6 58.7 433.5 62C436.4 65.4 437.7 69.8 437 74.2L433.9 98.1001C432.7 107.6 424.1 115.2 414.7 115.2ZM235.6 58.5C226.6 58.7 219.1 65.4001 217.8 74.3001L214.7 98.2C214.1 102.2 215.3 106.2 217.9 109.3C220.5 112.3 224.4 113.9 228.3 113.8H414.7C423.4 113.8 431.4 106.7 432.5 98L435.6 74C436.2 70 435 66 432.4 62.9C429.7 60 426 58.4 422 58.4H235.6V58.5Z"
            fill="#231F20" />
        <path
            d="M265.13 99.6062C273.589 91.6709 274.778 79.1974 267.788 71.7459C260.797 64.2945 248.273 64.6868 239.815 72.6221C231.356 80.5574 230.167 93.0309 237.157 100.482C244.148 107.934 256.672 107.542 265.13 99.6062Z"
            fill="#FFC700" />
        <path
            d="M266 79.9C265.9 80.1 265.7 80.3 265.5 80.5L248.8 95.3C248.2 95.8 247.8 95.8 247.4 95.3L240.2 86.7C239.8 86.2 239.9 85.8 240.4 85.4L242.7 83.5C243.2 83.1 243.6 83.1 243.9 83.5C245.3 85.2 246.8 86.9 248.2 88.5C248.6 89 249 89 249.6 88.5L262.6 77C263.2 76.5 263.6 76.5 264 77C264.6 77.6 265.1 78.3 265.7 79C265.8 79.2 265.9 79.4 266 79.6V79.9Z"
            fill="white" />
        <path
            d="M410.6 77.6H290.8C289.6 77.6 288.7 76.7 288.7 75.5C288.7 74.3 289.6 73.4 290.8 73.4H410.6C411.8 73.4 412.7 74.3 412.7 75.5C412.7 76.6 411.7 77.6 410.6 77.6Z"
            fill="#D1D3D4" />
        <path
            d="M383.5 97.8H288.1C286.9 97.8 286 96.9 286 95.7C286 94.5 286.9 93.6 288.1 93.6H383.5C384.7 93.6 385.6 94.5 385.6 95.7C385.6 96.8 384.7 97.8 383.5 97.8Z"
            fill="#D1D3D4" />
        <path
            d="M406.3 180.2H219.9C210.8 180.2 204.4 172.9 205.6 163.8L208.7 139.8C210.1 130.6 217.9 123.6 227.2 123.4H413.6C422.7 123.4 429.1 130.7 427.9 139.8L424.8 163.8C423.4 173.1 415.6 180 406.3 180.2Z"
            fill="white" />
        <path
            d="M406.3 180.9H219.9C215.5 181 211.3 179.2 208.4 175.9C205.5 172.5 204.2 168.1 204.9 163.7L208 139.7C209.2 130.3 217.8 122.7 227.2 122.7H413.6C418 122.6 422.2 124.4 425.1 127.7C428 131.1 429.3 135.5 428.6 139.9L425.5 163.8C424.3 173.3 415.6 180.9 406.3 180.9ZM227.2 124.2C218.2 124.4 210.7 131.1 209.4 140L206.3 164C205.7 168 206.9 172 209.5 175C212.2 177.9 216 179.6 219.9 179.5H406.3C415 179.5 423 172.4 424.1 163.7L427.2 139.7C427.8 135.7 426.6 131.7 424 128.6C421.4 125.6 417.5 124 413.6 124.1L227.2 124.2Z"
            fill="#231F20" />
        <path
            d="M241.6 172.2C236.4 172.3 231.4 170.1 227.9 166.2C224.4 162.2 222.9 156.9 223.7 151.6C225.1 140.4 235.4 131.3 246.6 131.3C251.8 131.2 256.8 133.4 260.3 137.3C263.8 141.3 265.3 146.6 264.5 151.8C263.1 163.1 252.8 172.2 241.6 172.2ZM246.6 132.8C236.1 132.8 226.4 141.4 225.1 151.9C224.4 156.7 225.8 161.7 229.1 165.3C232.3 168.9 236.9 170.9 241.7 170.8C252.2 170.8 261.9 162.2 263.2 151.7C263.9 146.9 262.5 142 259.3 138.3C256.1 134.7 251.4 132.7 246.6 132.8Z"
            fill="#D1D3D4" />
        <path
            d="M257.6 145.6C257.5 145.8 257.3 146 257.1 146.2L240.4 161C239.8 161.5 239.4 161.5 239 161L231.8 152.4C231.4 151.9 231.5 151.5 232 151.1L234.3 149.2C234.8 148.8 235.2 148.8 235.5 149.2L239.8 154.2C240.2 154.7 240.6 154.7 241.2 154.2L254.2 142.7C254.8 142.2 255.1 142.2 255.6 142.7C256.2 143.4 256.7 144 257.3 144.7C257.4 144.9 257.5 145.1 257.6 145.3V145.6Z"
            fill="white" />
        <path
            d="M402.2 143.2H282.3C281.1 143.2 280.2 142.3 280.2 141.1C280.2 139.9 281.1 139 282.3 139H402.1C403.3 139 404.2 139.9 404.2 141.1C404.3 142.3 403.3 143.2 402.2 143.2Z"
            fill="#D1D3D4" />
        <path
            d="M375.1 163.4H279.7C278.5 163.4 277.6 162.5 277.6 161.3C277.6 160.1 278.5 159.2 279.7 159.2H375.1C376.3 159.2 377.2 160.1 377.2 161.3C377.2 162.5 376.3 163.4 375.1 163.4Z"
            fill="#D1D3D4" />
        <path
            d="M397.8 245.9H211.5C202.4 245.9 196 238.5 197.2 229.5L200.3 205.5C201.7 196.3 209.5 189.3 218.8 189.1H405.2C414.3 189.1 420.7 196.5 419.5 205.5L416.4 229.5C415 238.7 407.2 245.7 397.8 245.9Z"
            fill="white" />
        <path
            d="M397.8 246.6H211.5C207.1 246.7 202.9 244.9 200 241.6C197.1 238.2 195.8 233.8 196.5 229.4L199.6 205.4C200.8 196 209.4 188.4 218.8 188.4H405.2C409.6 188.3 413.8 190.1 416.7 193.4C419.6 196.8 420.9 201.2 420.2 205.6L417.1 229.6C415.9 239 407.2 246.6 397.8 246.6ZM218.8 189.8C210.1 189.8 202.1 196.9 201 205.6L197.9 229.6C197.3 233.6 198.5 237.6 201.1 240.7C203.8 243.6 207.6 245.3 211.5 245.2H397.9C406.6 245.2 414.6 238.1 415.7 229.4L418.8 205.4C419.4 201.4 418.2 197.4 415.6 194.3C412.9 191.4 409.1 189.7 405.2 189.8H218.8Z"
            fill="#231F20" />
        <path
            d="M233.2 237.9C228 238 223 235.8 219.5 232C216 228 214.5 222.7 215.3 217.5C216.7 206.3 227 197.2 238.2 197.2C243.4 197.1 248.4 199.3 251.9 203.2C255.3 207.2 256.9 212.5 256.1 217.7C254.6 228.8 244.4 237.9 233.2 237.9ZM238.2 198.5C227.7 198.5 218 207.1 216.7 217.6C216 222.4 217.4 227.3 220.6 231.1C223.8 234.7 228.4 236.7 233.2 236.6C243.7 236.6 253.4 228 254.7 217.5C255.4 212.7 254 207.8 250.8 204.1C247.6 200.4 243 198.4 238.2 198.5Z"
            fill="#D1D3D4" />
        <path
            d="M249.1 211.2C249 211.4 248.8 211.6 248.6 211.8L231.9 226.6C231.3 227.1 230.9 227.1 230.5 226.6L223.3 218C222.9 217.5 223 217.1 223.5 216.7L225.8 214.8C226.3 214.4 226.7 214.4 227 214.8L231.3 219.8C231.7 220.3 232.1 220.3 232.7 219.8L245.7 208.3C246.3 207.8 246.7 207.8 247.1 208.3C247.7 208.9 248.2 209.6 248.8 210.3C248.9 210.5 249 210.7 249.1 210.8V211.2Z"
            fill="white" />
        <path
            d="M393.8 208.9H273.9C272.7 208.9 271.8 208 271.8 206.8C271.8 205.6 272.7 204.7 273.9 204.7H393.7C394.9 204.7 395.8 205.6 395.8 206.8C395.8 208 394.9 208.9 393.8 208.9Z"
            fill="#D1D3D4" />
        <path
            d="M366.7 229.1H271.3C270.1 229.1 269.2 228.2 269.2 227C269.2 225.8 270.1 224.9 271.3 224.9H366.7C367.9 224.9 368.8 225.8 368.8 227C368.8 228.2 367.9 229.1 366.7 229.1Z"
            fill="#D1D3D4" />
        <path
            d="M386.8 282.8C386.7 282.8 386.5 282.8 386.4 282.7L375.5 275.1C375.3 275 375.2 274.7 375.2 274.5C375.2 274.3 375.3 274 375.5 273.9L388.4 266.3C388.7 266.1 389.2 266.2 389.4 266.5C389.6 266.8 389.5 267.2 389.2 267.5C389.2 267.5 389.2 267.5 389.1 267.5L377.2 274.5L387.2 281.5C387.5 281.7 387.6 282.2 387.4 282.5C387.3 282.7 387 282.8 386.8 282.8Z"
            fill="#D1D3D4" />
        <path
            d="M396.2 282.8C395.8 282.8 395.5 282.5 395.5 282.1C395.5 281.9 395.6 281.6 395.8 281.5L407.7 274.5L397.7 267.5C397.4 267.3 397.3 266.9 397.5 266.6C397.5 266.6 397.5 266.6 397.5 266.5C397.7 266.2 398.1 266.1 398.5 266.3L409.4 273.9C409.6 274 409.7 274.3 409.7 274.5C409.7 274.7 409.6 275 409.3 275.1L396.4 282.7C396.5 282.7 396.4 282.8 396.2 282.8Z"
            fill="#D1D3D4" />
        <path
            d="M123.7 158.1C123.7 158.1 135.5 178.9 147 180.8C161.1 183.1 181.8 170.7 181.8 170.7L170.1 159.3L146.2 159.2L133.2 132.6L123.7 158.1Z"
            fill="#FFC700" />
        <path d="M143.1 293.8L143.9 302.8L156.4 301.8L155.2 291L143.1 293.8Z" fill="white" />
        <path
            d="M143.9 303.5C143.5 303.5 143.2 303.2 143.2 302.9L142.3 293.9C142.3 293.5 142.5 293.2 142.8 293.1L155 290.3C155.2 290.3 155.4 290.3 155.6 290.4C155.8 290.5 155.9 290.7 155.9 290.9L157.1 301.7C157.1 301.9 157.1 302.1 156.9 302.2C156.8 302.3 156.6 302.4 156.4 302.4L143.9 303.5ZM143.8 294.3L144.6 302L155.7 301.1L154.7 291.8L143.8 294.3Z"
            fill="#231F20" />
        <path d="M55.4999 273.9L47.3999 280.3L51.9999 288.9L59.9999 285.4L55.4999 273.9Z"
            fill="white" />
        <path
            d="M51.9999 289.6C51.6999 289.6 51.5 289.5 51.4 289.2L46.9 280.6C46.7 280.3 46.7999 279.9 47.0999 279.7L55.0999 273.3C55.2999 273.2 55.5 273.1 55.7 273.2C55.9 273.3 56.0999 273.4 56.2 273.6L60.7 285.1C60.8 285.5 60.6999 285.8 60.2999 286L52.2999 289.5C52.1999 289.6 52.0999 289.6 51.9999 289.6ZM48.2999 280.5L52.2999 288L59.0999 285L55.2 275.1L48.2999 280.5Z"
            fill="#231F20" />
        <path
            d="M79.6 192.4L80.4 249.7L52.5 273.9L58.3 288.2C58.3 288.2 99.1 268.6 105.4 259.8C111.7 251 112.7 229.6 112.7 229.6L133.6 250.6L141.6 296.1L157.5 295.2C157.5 295.2 155.5 261.8 155.5 249.4C155.5 237 123.9 194.4 123.9 194.4L79.6 192.4Z"
            fill="#231F20" />
        <path
            d="M141.5 296.7C141.2 296.7 140.9 296.5 140.8 296.1L132.8 250.8L113.2 231.1C112.9 236.2 111.3 252.5 105.9 260.1C99.5001 268.9 60.3001 287.9 58.6001 288.7C58.4001 288.8 58.2001 288.8 58.1001 288.7C57.9001 288.6 57.8001 288.5 57.7001 288.3L51.9001 274C51.8001 273.7 51.9001 273.4 52.1001 273.2L79.8001 249.2L79.0001 192.2C79.0001 192 79.1001 191.8 79.2001 191.7C79.3001 191.6 79.5001 191.5 79.7001 191.5L123.9 193.5C124.1 193.5 124.3 193.6 124.4 193.8C125.7 195.6 156.1 236.7 156.1 249.2C156.1 261.4 158.1 294.6 158.1 294.9C158.1 295.3 157.8 295.6 157.5 295.6L141.5 296.7ZM112.6 228.9C112.8 228.9 113 229 113.1 229.1L134 250C134.1 250.1 134.2 250.2 134.2 250.4L142.1 295.3L156.7 294.5C156.4 289.6 154.7 260.7 154.7 249.4C154.7 237.9 126.1 198.7 123.5 195.1L80.3001 193.2L81.1001 249.7C81.1001 249.9 81.0001 250.1 80.9001 250.2L53.3001 274.1L58.6001 287.2C63.9001 284.6 99.0001 267.3 104.7 259.3C110.9 250.7 111.9 229.7 111.9 229.5C111.9 229.2 112.1 229 112.3 228.9C112.4 228.9 112.5 228.9 112.6 228.9Z"
            fill="#231F20" />
        <path
            d="M76.7002 198L77.8002 170C77.8002 170 77.3002 135.3 90.1002 129.1C102.9 122.9 128.3 125.6 133.3 132.6C138.3 139.6 126.5 198 126.5 198H76.7002Z"
            fill="#FFC700" />
        <path
            d="M130.3 102.9C130.2 99.9 128.9 97.2 126.8 95.1C122.3 91 112.2 89.4 108.5 95.5C107.3 95.6 106.2 96 105.2 96.8C104.1 97.9 103.2 99.3 102.8 100.9C100.7 106.8 102.4 113.1 104.7 118.9C105.4 120.9 106.5 122.6 107.9 124.1C111.4 127.4 116.3 125.6 120.2 123.9C122.8 122.9 125.2 121.2 127.1 119C129.3 116.3 130.4 111.3 130.4 107.9C130.5 106.3 130.4 104.6 130.3 102.9Z"
            fill="white" />
        <path
            d="M112.8 126.6C110.8 126.7 108.9 125.9 107.5 124.5C106 123 104.8 121.1 104.1 119C102 113.8 99.8998 107 102.2 100.5C102.7 98.8 103.6 97.3 104.8 96.1C105.7 95.3 106.9 94.8 108.1 94.6C109.7 92.4 112.1 91 114.8 90.7C119.3 90.2 123.8 91.5 127.3 94.4C129.5 96.3 130.7 99 131.1 102.6C131.3 104.3 131.3 106 131.3 107.7C131.3 111.3 130.1 116.5 127.8 119.2C125.9 121.4 123.4 123.2 120.7 124.3C118.5 125.4 115.6 126.6 112.8 126.6ZM116.6 92.2C116 92.2 115.5 92.2 114.9 92.3C112.5 92.5 110.3 93.8 109 95.8C108.9 96 108.7 96.1 108.4 96.1C107.4 96.2 106.4 96.6 105.6 97.3C104.6 98.3 103.8 99.6 103.4 101.1C101.3 107.1 103.3 113.6 105.3 118.6C106 120.5 107 122.2 108.4 123.6C111.5 126.5 115.8 125.1 120 123.3C122.5 122.3 124.8 120.7 126.6 118.6C128.6 116.1 129.7 111.3 129.8 108C129.8 106.3 129.8 104.7 129.6 103C129.2 99.7 128.2 97.4 126.3 95.6C123.5 93.4 120.1 92.2 116.6 92.2Z"
            fill="#231F20" />
        <path
            d="M120.9 125.3L120 133.8C120 133.8 118 138.3 112.8 136C109.7 134.7 107.7 131.7 107.5 128.4L109.2 113.2C109.2 113.2 113.6 111.7 114 102.7C114 102.7 119.3 102.7 127.6 103.1C127.6 103.1 128.7 117.1 127.4 121.2C126.1 125.3 120.9 125.3 120.9 125.3Z"
            fill="white" />
        <path
            d="M115.6 137.4C114.6 137.4 113.5 137.1 112.6 136.7C109.3 135.3 107 132.1 106.8 128.5L108.5 113.2C108.5 112.9 108.7 112.7 109 112.6C109 112.6 113 111.1 113.3 102.8C113.3 102.4 113.6 102.1 114 102.1C114 102.1 119.4 102.1 127.6 102.5C128 102.5 128.2 102.8 128.3 103.1C128.4 103.7 129.4 117.3 128 121.5C126.9 124.8 123.7 125.8 121.7 126L120.9 133.9C120.9 134 120.9 134 120.9 134.1C119.8 136.1 117.8 137.3 115.6 137.4ZM109.8 113.7L108.2 128.5C108.4 131.5 110.3 134.2 113.1 135.4C117.3 137.2 119.1 134.2 119.4 133.6L120.3 125.2C120.3 124.8 120.6 124.6 121 124.6C121.2 124.6 125.4 124.6 126.6 121C127.8 117.4 127 106.5 126.8 103.8C120.6 103.5 116.2 103.5 114.6 103.4C114.1 110.8 111 113.1 109.8 113.7Z"
            fill="#231F20" />
        <path
            d="M112.4 113.5C112.3 112.7 112 112 111.5 111.4C111 110.9 110.4 110.4 109.7 110.1C109.4 109.9 109 109.7 108.6 109.7C108.3 109.7 108 109.7 107.8 109.8C107.2 110 106.6 110.4 106.2 110.9C106 111.4 105.8 111.9 105.9 112.5C105.9 113.1 105.9 113.7 106 114.2C106.6 116.6 108.9 118 111.3 117.5C111.3 117.5 111.3 117.5 111.4 117.5"
            fill="white" />
        <path
            d="M110.4 118.4C109.5 118.4 108.6 118.1 107.7 117.7C106.5 117 105.7 115.8 105.4 114.5C105.3 113.9 105.2 113.2 105.2 112.6C105.2 112 105.3 111.3 105.6 110.7C106 110 106.7 109.5 107.5 109.2C107.8 109.1 108.2 109 108.6 109C109.1 109.1 109.6 109.2 110 109.5C110.7 109.9 111.4 110.4 111.9 110.9C112.5 111.6 112.8 112.5 112.9 113.4C112.9 113.8 112.6 114.1 112.3 114.1C111.9 114.1 111.6 113.8 111.5 113.5C111.5 112.9 111.2 112.3 110.8 111.8C110.3 111.3 109.8 110.9 109.2 110.7C109 110.5 108.7 110.4 108.4 110.4C108.2 110.4 108 110.4 107.8 110.5C107.3 110.6 106.9 110.9 106.6 111.3C106.4 111.7 106.3 112.1 106.4 112.5C106.4 113 106.4 113.5 106.5 114.1C107 116.1 108.9 117.3 110.9 116.8C110.9 116.8 110.9 116.8 111 116.8C111.4 116.7 111.8 116.9 111.8 117.3C111.9 117.7 111.7 118.1 111.3 118.1C111.2 118.3 110.8 118.4 110.4 118.4Z"
            fill="#231F20" />
        <path
            d="M120.5 129.4C118.7 128.9 117.1 127.8 115.9 126.4C114.9 125.3 114.5 123.8 114.9 122.3C116.4 124.1 118.6 125.2 120.9 125.3L120.5 129.4Z"
            fill="#231F20" />
        <path
            d="M120.5 130.1H120.4C118.4 129.6 116.7 128.5 115.4 126.9C114.2 125.6 113.8 123.8 114.3 122.1C114.4 121.9 114.6 121.7 114.9 121.7C115.2 121.7 115.4 121.8 115.6 122C116.9 123.6 118.9 124.6 121 124.7C121.2 124.7 121.4 124.8 121.5 124.9C121.6 125.1 121.7 125.2 121.7 125.5L121.3 129.6C121.3 129.8 121.2 130 121 130.1C120.8 130 120.7 130.1 120.5 130.1ZM115.4 123.9C115.5 124.7 115.9 125.4 116.4 126C117.4 127.1 118.6 127.9 119.9 128.5L120.1 126C118.4 125.8 116.8 125.1 115.4 123.9Z"
            fill="#231F20" />
        <path
            d="M122.7 117.9C122 117.9 121.3 117.7 120.7 117.5C120.3 117.4 120.2 116.9 120.3 116.6C120.4 116.2 120.9 116.1 121.2 116.2C121.8 116.5 122.4 116.5 123 116.5C122.7 114.9 122.2 113.4 121.4 111.9C121.2 111.6 121.4 111.1 121.7 111C122 110.8 122.5 111 122.6 111.3C125.1 116.5 124.2 117.2 123.9 117.5C123.7 117.7 123.2 117.9 122.7 117.9Z"
            fill="#231F20" />
        <path
            d="M120.6 120.7C119.7 120.7 118.9 120.5 118.2 120C117.4 119.4 116.9 118.5 116.8 117.4C116.7 117 117 116.7 117.4 116.6C117.8 116.5 118.1 116.8 118.2 117.2C118.2 117.8 118.6 118.4 119.1 118.8C119.7 119.2 120.5 119.3 121.2 119.2C121.6 119.1 121.9 119.4 122 119.8C122.1 120.2 121.8 120.5 121.4 120.6C121.1 120.7 120.9 120.7 120.6 120.7Z"
            fill="#231F20" />
        <path
            d="M119.6 110C119.4 110 119.2 109.9 119.1 109.8C118.9 109.5 118.5 109.3 118.1 109.3C117.6 109.3 117 109.5 116.6 109.9C116.3 110.2 115.9 110.1 115.6 109.8C115.3 109.5 115.3 109.1 115.6 108.8C116.3 108.2 117.2 107.9 118.1 107.9C118.9 107.9 119.6 108.3 120 108.9C120.3 109.2 120.2 109.6 120 109.9C119.9 109.9 119.8 110 119.6 110Z"
            fill="#231F20" />
        <path
            d="M123.8 110.9C123.7 110.9 123.6 110.9 123.5 110.8C123.2 110.6 123 110.2 123.2 109.9C123.5 109.3 124.1 108.8 124.8 108.7C125.7 108.7 126.5 109.1 127 109.8C127.2 110.1 127.1 110.6 126.8 110.8C126.6 110.9 126.3 110.9 126 110.8C125.6 110.4 125.2 110.2 125 110.2C124.8 110.2 124.5 110.6 124.5 110.6C124.4 110.7 124.1 110.9 123.8 110.9Z"
            fill="#231F20" />
        <path
            d="M115.2 137L110.6 139.4L113.3 143.1L105.2 177.7L112.9 186.4L119.6 174.6L115.7 143.1L118.8 139.8L115.2 137Z"
            fill="white" />
        <path
            d="M47.4 280.3L38 286.7C38 286.7 54 313.8 58.4 306.8C59.6 304.9 51.9 288.9 51.9 288.9L47.4 280.3Z"
            fill="#231F20" />
        <path
            d="M56.5 308.7C50.3 308.6 38.8 289.3 37.5 287.1C37.3 286.8 37.4 286.4 37.7 286.2L47.1 279.8C47.4 279.6 47.9 279.7 48.1 280C48.1 280 48.1 280 48.1 280.1L52.6 288.7C54.9 293.6 60.2 305.3 58.9 307.3C58.5 308.1 57.5 308.7 56.5 308.7ZM39 286.9C42.7 293 52.1 307.2 56.5 307.3C57.1 307.3 57.6 307 57.9 306.5C58.4 305.3 54.9 296.6 51.4 289.3L47.2 281.4L39 286.9Z"
            fill="#231F20" />
        <path
            d="M143.8 302.8C143.8 302.8 143.5 313.3 144.5 313.4C145.5 313.5 175.1 309.5 172.9 307.3C170.7 305.1 156.5 301.8 156.5 301.8L143.8 302.8Z"
            fill="#231F20" />
        <path
            d="M144.4 314.1C143.8 314 142.9 313.8 143.2 302.8C143.2 302.4 143.5 302.2 143.8 302.1L156.4 301.1C156.5 301.1 156.5 301.1 156.6 301.1C158.1 301.4 171 304.4 173.4 306.8C173.8 307.1 173.8 307.6 173.6 308C172 311 145 314.1 144.4 314.1ZM144.5 303.4C144.4 307.3 144.5 311.6 144.8 312.7C148.1 312.6 169.3 309.3 172.1 307.5C170 306 161.7 303.7 156.4 302.5L144.5 303.4Z"
            fill="#231F20" />
        <path
            d="M127.3 194.7C126.8 194.7 126.5 194.3 126.6 193.9C127.7 185.4 133 152.5 133.1 152.2C133.1 151.8 133.5 151.5 133.9 151.6C134.3 151.7 134.6 152 134.5 152.4C134.5 152.4 134.5 152.4 134.5 152.5C134.4 152.8 129.1 185.6 128.1 194.1C128 194.4 127.7 194.7 127.3 194.7Z"
            fill="#231F20" />
        <path
            d="M185 184C207.81 184 226.3 165.509 226.3 142.7C226.3 119.891 207.81 101.4 185 101.4C162.191 101.4 143.7 119.891 143.7 142.7C143.7 165.509 162.191 184 185 184Z"
            fill="#231F20" />
        <path
            d="M185 184.6C161.8 184.6 143 165.8 143 142.6C143 119.4 161.8 100.6 185 100.6C207.3 100.6 225.7 118 226.9 140.2C228.2 163.3 210.6 183.2 187.5 184.5C186.6 184.6 185.8 184.6 185 184.6ZM185.1 102.1C184.3 102.1 183.5 102.1 182.7 102.2C160.3 103.5 143.3 122.7 144.6 145.1C145.9 167.5 165.1 184.5 187.5 183.2C209.9 181.9 226.9 162.7 225.6 140.3C224.3 118.9 206.5 102.1 185.1 102.1Z"
            fill="#231F20" />
        <path
            d="M178.6 184.4C201.409 184.4 219.9 165.909 219.9 143.1C219.9 120.291 201.409 101.8 178.6 101.8C155.79 101.8 137.3 120.291 137.3 143.1C137.3 165.909 155.79 184.4 178.6 184.4Z"
            fill="#FFC700" />
        <path
            d="M178.6 185C155.4 185 136.7 166.1 136.8 143C136.8 119.8 155.7 101.1 178.8 101.2C202 101.2 220.7 120.1 220.6 143.2C220.6 165.4 203.2 183.7 181.1 185C180.2 185 179.4 185 178.6 185ZM178.7 102.5C177.9 102.5 177.1 102.5 176.3 102.6C153.9 103.9 136.9 123.1 138.2 145.5C139.5 167.9 158.7 184.9 181.1 183.6C203.5 182.3 220.5 163.1 219.2 140.7C217.9 119.2 200.1 102.5 178.7 102.5Z"
            fill="#231F20" />
        <path
            d="M204.6 129.1C204.3 129.5 204 129.9 203.7 130.3L171.7 162.3C170.6 163.4 169.8 163.4 168.7 162.3L150.7 143.7C149.9 143.1 149.8 142 150.4 141.2C150.5 141 150.7 140.9 150.9 140.8L155.4 136.7C156 136 157.1 135.9 157.8 136.5C157.9 136.6 158 136.7 158.1 136.8L168.8 147.7C169.9 148.8 170.7 148.8 171.8 147.7L196.6 123C197.7 121.9 198.5 121.9 199.6 123C201 124.4 202.4 125.8 203.8 127.2C204.1 127.6 204.4 128 204.7 128.4L204.6 129.1Z"
            fill="white" />
        <path
            d="M138.8 166.4C138.8 166.4 147.2 165.3 148.5 164.5C149.8 163.7 153.3 157.9 155.2 157.5C157.1 157.1 156.7 161.3 155.2 163C153.7 164.7 162.3 158.4 163.7 159.8C165.6 162.3 165.6 165.8 163.7 168.3C161.3 171.2 147.1 176.8 139.7 177.2"
            fill="white" />
        <path
            d="M139.6 177.8C139.2 177.8 138.9 177.5 138.9 177.1C138.9 176.7 139.2 176.4 139.6 176.4C146.7 176 160.8 170.5 163.1 167.8C164.8 165.6 164.8 162.5 163.2 160.2C162.4 159.9 158.6 162.1 157.3 162.8C155.3 163.9 154.9 164.2 154.5 163.6C154.2 163.3 154.3 162.9 154.7 162.4C155.7 161.2 156 158.8 155.6 158.2C155.6 158.1 155.5 158.1 155.4 158.1C154.5 158.3 152.7 160.7 151.4 162.2C150.7 163.2 149.9 164.1 148.9 165C147.5 165.9 140.3 166.9 138.9 167C138.5 167 138.2 166.8 138.1 166.4C138 166 138.3 165.7 138.7 165.6C142.1 165.2 147.3 164.3 148.1 163.8C148.9 163 149.6 162.2 150.2 161.3C152.2 158.8 153.7 157 155 156.7C155.7 156.5 156.4 156.8 156.7 157.4C157.2 158.7 157.2 160.2 156.7 161.5C160.2 159.5 163 158 164.1 159.2C165.8 160.9 166.7 165.5 164.1 168.6C161.5 171.7 147.3 177.4 139.6 177.8Z"
            fill="#231F20" />
        <path
            d="M93.0001 128.9C93.0001 128.9 96.6001 164.8 107 165C119.7 165.2 141.4 164.7 141.4 164.7L145.6 178.2C145.6 178.2 112 186.3 97.8001 180.1C83.6001 173.9 82.6001 149.8 82.6001 149.8L93.0001 128.9Z"
            fill="#FFC700" />
        <path
            d="M117.2 166.1C111.5 166.1 106.6 165.9 105.3 165.3C101.6 163.7 94.8 140.2 93.4 135.4C93.3 135 93.5 134.6 93.9 134.5C94.3 134.4 94.7 134.6 94.8 135C97.8 145.6 103.5 162.9 105.9 163.9C108.3 164.9 128.5 164.5 141.3 163.9C141.7 163.9 142 164.2 142.1 164.6C142.1 165 141.8 165.3 141.4 165.4C139.3 165.5 127 166.1 117.2 166.1Z"
            fill="#231F20" />
        <path
            d="M112.9 182.9C107.2 182.9 101.6 182.4 97.6 180.8C84.2 175.7 82 156.9 82 156.1C82 155.7 82.2 155.3 82.6 155.3C83 155.3 83.4 155.5 83.4 155.9C83.4 156.1 85.6 174.7 98.1 179.4C110.9 184.2 139.8 178.6 140.1 178.6C140.5 178.5 140.9 178.8 140.9 179.2C141 179.6 140.7 180 140.3 180C131.3 181.8 122.1 182.7 112.9 182.9Z"
            fill="#231F20" />
    </g>
    <defs>
        <clipPath id="clip0_1_8169">
            <rect width="500" height="314" fill="white" />
        </clipPath>
    </defs>
</svg>